<svg xmlns="http://www.w3.org/2000/svg" width="100%" height="100%" preserveAspectRatio="xMidyMid meet" viewBox="0 0 481 481"><title>Pterodon Logo Merged</title><path d="M256,15.5h-1.22c-1.6,0-3.19,0-4.78.07l.37,15c1.86-.05,3.76-.07,5.63-.07v-15Zm-12,.29-3.81.22h-.14l-2,.14,1.1,15c1.86-.14,3.75-.25,5.62-.34l-.74-15Zm-12,.89-1.87.19h-.09c-1.34.14-2.67.3-4,.46l1.85,14.89c1.85-.23,3.74-.44,5.59-.62L232,16.68Zm-11.91,1.48-1.48.22h0l-.08,0h-.41c-1.32.21-2.63.43-3.94.66l2.59,14.77c1.83-.32,3.7-.62,5.55-.9l-2.22-14.83Zm-11.82,2.07c-1.48.3-3,.61-4.43.93h-.35l-.08,0h0l-1,.23,3.33,14.62c1.82-.41,3.67-.81,5.5-1.18l-3-14.7Zm-11.7,2.66-1.16.3h0l-.07,0h0l-.06,0H195l-.06,0h0l-.07,0h0l-.09,0h0c-1.21.32-2.41.64-3.61,1h0l-.17.05h0l-.17.05h0l4.06,14.44c1.8-.5,3.62-1,5.43-1.45l-3.69-14.54Zm-11.55,3.24-3.56,1.13h-.06l0,0h0l-.07,0h0l-2,.64,4.77,14.22c1.77-.59,3.57-1.17,5.36-1.72l-4.42-14.34ZM173.68,30c-1.29.47-2.58.95-3.86,1.44h0l-.07,0h0l-.07,0h0l0,0h0l0,0h-.05l0,0-.06,0h0l-.07,0h0l-1.19.46,5.49,14c1.74-.68,3.5-1.35,5.26-2L173.68,30Zm-11.16,4.38q-2.37,1-4.71,2l0,0h0l-.74.34,6.18,13.67c1.7-.77,3.43-1.53,5.15-2.26l-5.83-13.82Zm-10.94,4.95h0q-2.7,1.3-5.37,2.67l6.86,13.35c1.66-.86,3.35-1.7,5-2.51l-6.52-13.51Zm-10.67,5.48q-1.82,1-3.6,2h0l-.07,0h0l0,0,0,0,0,0L137,47h0l-.06,0,0,0-.06,0h0l-.07,0h0l-.16.09h0l-.92.53,7.52,13c1.61-.94,3.26-1.87,4.9-2.76l-7.19-13.17Zm-10.38,6c-1.34.83-2.68,1.66-4,2.51h0l-.07.05h0l-.07,0h0l-.06,0,0,0,0,0,0,0,0,0,0,0-.05,0,0,0,0,0-.07,0h0l-.47.3,8.15,12.59c1.57-1,3.17-2,4.76-3l-7.83-12.79Zm-10.07,6.53-1.16.79c-1.26.87-2.51,1.76-3.75,2.65h0l8.77,12.17c1.52-1.09,3.07-2.18,4.61-3.23l-8.46-12.38Zm-9.74,7q-1.77,1.35-3.53,2.73L106,68l9.36,11.72c1.46-1.17,3-2.33,4.44-3.46l-9.07-12Zm-9.37,7.49-.15.12h0q-2.22,1.88-4.4,3.8L106.74,87c1.39-1.24,2.83-2.47,4.26-3.68l-9.65-11.48Zm-9,8-.27.25h0l0,0,0,0,0,0,0,0,0,0-.06,0h0l-.07.06h0c-1.26,1.19-2.52,2.38-3.76,3.6L98.49,94.63c1.34-1.31,2.71-2.61,4.07-3.88l-10.2-11Zm-8.59,8.38-.29.3,0,0,0,0,0,0,0,0-.05.06h0q-1.86,1.92-3.67,3.88l11,10.2c1.27-1.37,2.58-2.74,3.88-4.08L83.77,88.14Zm-8.16,8.8c-.9,1-1.8,2.06-2.69,3.1h0l0,0,0,0,0,0,0,0,0,0,0,.05,0,0,0,0,0,0,0,0,0,0,0,.06h0l0,.06h0l0,.06h0l0,.06h0l-.06.06h0l-.06.07h0l-.06.07h0l-.06.07h0l-.06.07h0l-.06.06h0l-.06.06h0l-.24.28,11.49,9.65c1.2-1.43,2.43-2.87,3.67-4.27L75.61,96.94Zm-7.71,9.19a3.25,3.25,0,0,0-.23.29h0l0,.06h0l0,0,0,0,0,0,0,0,0,0,0,0,0,0,0,0,0,0,0,.06h0l-.05.06h0c-.73.91-1.44,1.83-2.15,2.76h0l0,0,0,0,0,0,0,0,0,0,0,0,0,0,0,.05h0l0,.06v0l0,.06h0l0,.06h0l-.45.59,12,9.06c1.13-1.48,2.29-3,3.45-4.44L67.9,106.13Zm-7.25,9.56c-.72,1-1.43,2-2.13,3h0l-.05.07h0l0,.06,0,0,0,0,0,0,0,0,0,0,0,0-1,1.54,12.39,8.46c1.05-1.54,2.13-3.09,3.22-4.61l-12.17-8.76Zm-6.76,9.91c-.26.39-.51.79-.76,1.18h0l0,.06,0,0,0,0,0,0,0,0,0,.07h0c-.76,1.2-1.52,2.41-2.26,3.62l12.8,7.83c1-1.59,2-3.2,3-4.76L53.89,125.6Zm-6.27,10.24c-.39.67-.77,1.35-1.15,2h0l0,.07h0l0,0,0,0v0l0,.05v0l0,.07h0l-.05.08h0c-.52.93-1,1.86-1.54,2.79l13.17,7.18c.89-1.64,1.82-3.29,2.75-4.91l-13-7.5Zm-5.74,10.53-.15.3h0l0,.06v0l0,0,0,0v0l0,.06v0l0,.06v0c-.79,1.55-1.57,3.12-2.33,4.69l13.51,6.52c.81-1.69,1.66-3.38,2.51-5l-13.35-6.85Zm-5.21,10.81q-1.05,2.35-2.07,4.72h0l0,.08v0l0,.06,0,0,0,0,0,.06v0l0,.07h0l-.15.38,13.82,5.83c.72-1.72,1.48-3.46,2.25-5.16l-13.68-6.17ZM32,168.24q-1.08,2.77-2.1,5.58h0v0L44,179c.64-1.76,1.31-3.53,2-5.26l-14-5.48Zm-4.09,11.28c-.64,1.89-1.25,3.8-1.84,5.71l14.34,4.41c.55-1.79,1.13-3.59,1.72-5.36l-14.22-4.76ZM24.39,191l-.05.18h0l0,.08v0l0,.06v.09l0,.06v0l0,.07h0l-.56,2.06h0l0,.08v.11l0,.06v.17l0,.06v0l0,.07v0l0,.08h0c-.22.82-.43,1.63-.64,2.45l14.55,3.69c.45-1.81.94-3.64,1.44-5.44l-14.44-4Zm-2.94,11.63h0v.25l0,.06v0l0,.07v0l0,.07h0c-.14.61-.27,1.22-.4,1.82h0l0,.08h0v.08h0l0,.08v.25l0,.05v0l0,.06v0l0,.08h0l-.57,2.76,14.71,2.94c.37-1.83.76-3.68,1.17-5.5l-14.62-3.31Zm-2.36,11.76-.18,1v.27c-.15.89-.3,1.78-.44,2.69h0v.21l-.27,1.75L33,222.51c.27-1.84.57-3.71.89-5.55l-14.77-2.58Zm-1.77,11.87c-.17,1.4-.33,2.81-.48,4.21h0v.26l-.15,1.49,14.93,1.46c.18-1.86.39-3.74.62-5.59l-14.89-1.84Zm-1.17,11.94q-.22,3-.36,6l15,.73c.09-1.87.2-3.76.34-5.62l-15-1.1Zm-.58,12c0,1,0,2-.05,3.07v1.39h0V256h0v.18h15V256c0-1.81,0-3.65.06-5.46l-15-.36Zm15,11.62-15,.38c.05,2,.12,4,.22,6l15-.75c-.09-1.87-.16-3.76-.21-5.63Zm.56,11.25-14.95,1.11v.06h0v.09h0v.1h0v.09h0v.09h0q.21,2.77.49,5.54l14.92-1.49c-.18-1.85-.35-3.74-.49-5.6Zm1.12,11.2L17.37,286.1c.13,1,.26,2.1.41,3.15h0v.09h0l0,.08v.21h0v.17l0,.18h0c.09.68.19,1.36.29,2L33,289.82c-.28-1.85-.54-3.72-.77-5.57Zm1.67,11.12L19.15,298l.06.36v.44l0,.08h0v.09h0l.27,1.47h0l0,.09h0l0,.08h0v.19l0,.07v0l0,.07v1.5l0,.07v0l0,.07v0l0,.08h0c.07.39.15.76.22,1.15l14.71-3c-.37-1.83-.72-3.69-1-5.53Zm2.23,11-14.63,3.34c.45,1.95.92,3.9,1.41,5.83l14.54-3.7c-.46-1.81-.91-3.65-1.32-5.47Zm2.78,10.9-14.44,4.07c.54,1.93,1.11,3.84,1.7,5.75l14.33-4.43c-.55-1.78-1.09-3.59-1.59-5.39ZM42.25,328,28,332.82q1,2.85,2,5.66l14.09-5.14c-.64-1.75-1.27-3.54-1.86-5.31ZM46.1,338.6l-14,5.49.06.17h0l.81,2h0l0,.08v0l0,.07h0l0,.07v0l0,.06v0l0,.06,0,0v.05l0,0,0,0,0,.06v0l0,.06v0l0,.07h0l.72,1.73h0l0,.08v0l0,.06v0l0,0,0,.06v0c.07.15.13.29.19.45l13.82-5.85c-.73-1.72-1.44-3.47-2.13-5.2ZM50.49,349l-13.67,6.19.12.26,0,.06v0q1.17,2.56,2.4,5.1l13.5-6.53c-.81-1.68-1.61-3.4-2.38-5.1Zm4.89,10.13L42.05,366c.83,1.62,1.69,3.24,2.56,4.84h0l0,.06v0l0,.05,0,.05v0l.13.24L58,364.05c-.9-1.64-1.78-3.31-2.64-5Zm5.4,9.87-13,7.52c.25.42.49.85.74,1.26v0l0,0,0,0,0,0,0,.07h0c.73,1.24,1.47,2.47,2.22,3.7l12.78-7.85c-1-1.59-1.94-3.22-2.88-4.83Zm5.88,9.59L54.08,386.7c.45.7.91,1.39,1.37,2.08l0,0v0l0,.05v0l0,.06h0l0,.08h0l1.14,1.69h0l0,0,.61.89,12.38-8.47c-1.06-1.54-2.11-3.12-3.13-4.68ZM73,387.82,60.86,396.6c1.17,1.63,2.36,3.23,3.57,4.82l11.94-9.08c-1.13-1.48-2.26-3-3.35-4.52Zm6.81,9-11.71,9.37,1.26,1.57h0l0,0,0,0,0,0,0,0,0,0,0,.06h0c.77.94,1.54,1.88,2.33,2.81l11.47-9.66c-1.2-1.43-2.4-2.89-3.57-4.35Zm7.25,8.61-11.23,9.94c.47.54,1,1.08,1.43,1.61h0l0,.06v0l.05.05,0,0,0,0,0,0,0,0,0,0v0l0,.05h0l.84.93h0l.06.06h0l0,.05v0l0,.05,0,0,0,0,0,0,0,0,0,0,0,0,0,.06h0c.33.37.67.73,1,1.1l11-10.22c-1.27-1.37-2.54-2.77-3.78-4.17Zm7.67,8.24L84,424.12l.84.85h0l0,0,0,0,0,0,0,0,0,0,0,0,0,0,0,0,0,0,0,.06h0l.06.05h0c1,1,2,2,3,3l10.46-10.75c-1.34-1.31-2.68-2.64-4-4Zm8.06,7.85-10.19,11c.86.8,1.73,1.59,2.61,2.38h0l.06.05h0l0,0,0,0,0,0,0,0,0,0,0,0,0,0,0,0,0,0,0,.05h0l.07.05h0l.07.06h0l1.26,1.12L107,425.25c-1.4-1.23-2.81-2.5-4.18-3.77Zm8.45,7.44-9.64,11.5c1,.88,2.12,1.75,3.18,2.62h0l.06,0v0l.06,0,0,0,0,0,0,0,0,0,0,0h0l1.14.92,9.34-11.74c-1.46-1.16-2.92-2.36-4.35-3.56Zm8.8,7-9,12,1.34,1h0l.07,0h0l.07,0v0l.06,0h0l0,0,0,0,0,0,0,0h0l.06.05h0l3,2.2,8.75-12.19c-1.52-1.09-3-2.21-4.53-3.34Zm9.14,6.57-8.45,12.4c1.65,1.12,3.32,2.23,5,3.31l8.14-12.6c-1.57-1-3.15-2.06-4.69-3.11Zm9.45,6.1-7.82,12.8,0,0,0,0h0c1.09.67,2.19,1.33,3.29,2h0l.08,0h0l.07,0h0l.06,0,0,0,0,0,0,0,0,0,0,0h0l.07,0h0l1.26.74,7.5-13c-1.62-.93-3.25-1.9-4.84-2.87Zm9.75,5.62-7.17,13.18,2.72,1.46h0l.08,0h0l.06,0,0,0,.05,0,0,0,0,0,0,0h0l.06,0h0l.07,0h0l.08,0h0l2,1,6.84-13.35c-1.66-.85-3.34-1.74-5-2.63Zm10,5.13-6.5,13.52q1.68.81,3.39,1.59h0l.08,0h0l.06,0,0,0,0,0,.05,0h0l.06,0h0l.08,0h0l1.57.71,6.16-13.68c-1.71-.76-3.42-1.56-5.1-2.37ZM168.66,464l-5.81,13.82,1,.44h0l.07,0h0l.07,0h0l.06,0h.07l.05,0h0l.06,0h0l.07,0h0c1.18.49,2.37,1,3.56,1.43h0l.07,0,.07,0h0l.27.1,5.46-14c-1.74-.68-3.49-1.39-5.21-2.11Zm10.47,4.09L174,482.17l.88.31h0l.07,0h0l.05,0,.05,0h0l.08,0h0c1.06.38,2.14.76,3.21,1.12h.06l.05,0h0l.07,0h0l1.07.36,4.75-14.23c-1.77-.59-3.55-1.21-5.31-1.85Zm10.67,3.57L185.4,486c1.19.37,2.39.72,3.59,1.07h0l.17,0h0l.08,0h.06l.05,0h0l.09,0h0l1.7.48,4-14.45c-1.79-.5-3.61-1-5.39-1.58Zm10.83,3L197,489.2c1.39.35,2.78.69,4.18,1h.2l1.45.33L206.1,476c-1.82-.41-3.66-.85-5.47-1.3Zm11,2.47-2.94,14.71.88.18H210l2.66.5h.26l.08,0h0l1.59.28,2.57-14.78c-1.84-.31-3.7-.66-5.53-1Zm11.08,1.93-2.19,14.84q3,.44,5.94.8l1.83-14.89c-1.86-.23-3.73-.48-5.58-.75Zm11.17,1.37-1.46,14.93q3,.28,6,.5l1.09-15c-1.87-.13-3.75-.29-5.61-.47Zm11.23.81-.72,15c1.52.08,3,.13,4.56.18h.32l1.12,0,.34-15c-1.87,0-3.76-.11-5.62-.2Zm16.89.18c-1.87.05-3.76.08-5.63.08l0,15,3,0h.82l2.18,0-.39-15Zm11.24-.57c-1.86.14-3.75.26-5.61.36l.75,15c2-.1,4-.23,6-.38l-1.13-15Zm11.2-1.12c-1.85.23-3.73.44-5.59.63l1.5,14.93c1.38-.14,2.77-.29,4.14-.46h.44l1.38-.17-1.87-14.88Zm11.13-1.68c-1.84.32-3.71.63-5.56.91l2.25,14.83H293l.09,0h.09c1.49-.23,3-.48,4.44-.73h.34l.22,0-2.61-14.77Zm11-2.24c-1.82.42-3.67.82-5.5,1.19l3,14.7,2.75-.57h.79l1.28-.29h0l.09,0h0l.08,0h0l.07,0h0l.07,0h0l.06,0h.08l.05,0h0l.07,0h0l.08,0h0l.28-.06-3.35-14.63ZM317.45,473c-1.79.51-3.62,1-5.43,1.46L315.74,489q2.91-.74,5.79-1.56L317.45,473Zm10.74-3.33c-1.76.6-3.56,1.18-5.35,1.73l4.45,14.33c1.39-.43,2.78-.88,4.16-1.33h0l0,0h.07l.06,0h0l1.33-.45-4.8-14.21Zm10.56-3.86c-1.73.68-3.5,1.35-5.25,2l5.15,14.09,2.62-1h0l.07,0h0l.06,0h0l.06,0,0,0,0,0h0l.05,0h0l0,0,0,0,.05,0h0l.05,0h0l0,0,0,0h.05l0,0,.05,0h0l.06,0h0l.07,0h0l.07,0h0l.08,0h0l1.7-.66-5.51-14Zm10.36-4.39c-1.7.77-3.43,1.53-5.15,2.26l5.85,13.81c1.85-.79,3.68-1.59,5.5-2.42l-6.2-13.65Zm10.12-4.91c-1.66.86-3.35,1.7-5,2.52l6.54,13.5.26-.13h0l.05,0,2.52-1.24h0l.08,0h0l.06,0h0l.06,0h0l.06,0,0,0h0l.06,0h0l.15-.07h0l.49-.25h0l.15-.07h0l.06,0h0l.05,0,0,0,0,0,0,0,0,0,.05,0,0,0,.07,0h0l.07,0h0l.75-.39-6.88-13.33Zm9.86-5.4c-1.61.93-3.26,1.86-4.89,2.76l7.2,13.15c1.4-.76,2.77-1.53,4.15-2.32h0l.05,0h0l0,0,.05,0h0l.08,0h0l.81-.46-7.54-13Zm9.59-5.9c-1.57,1-3.17,2-4.76,3L381.78,461q2.55-1.57,5.07-3.21l-8.17-12.58Zm9.28-6.36c-1.51,1.09-3.06,2.18-4.6,3.24l8.48,12.37q2.48-1.69,4.91-3.45L388,438.88Zm9-6.82c-1.46,1.17-3,2.34-4.43,3.47l9.08,11.93c1.6-1.21,3.17-2.44,4.73-3.69l-9.38-11.71Zm8.61-7.25c-1.4,1.24-2.83,2.48-4.26,3.68L410.93,440q2.29-1.93,4.54-3.93l-10-11.22Zm8.23-7.67c-1.33,1.3-2.7,2.61-4.07,3.88l10.23,11q2.19-2.06,4.34-4.15l-10.5-10.71Zm7.85-8.08c-1.27,1.38-2.57,2.75-3.88,4.09l10.76,10.45q1.66-1.71,3.29-3.45l0,0,0-.05,0,0,0,0,.05,0h0l.66-.71-11-10.19Zm7.43-8.45c-1.2,1.44-2.43,2.87-3.66,4.28l11.26,9.9,1.47-1.69h0l.05-.06h0l.05-.06h0l0-.06h0l0-.06,0,0,0-.05,0,0,0-.05,0,0,0-.05,0,0,0,0,0,0,0,0,0,0,0,0,0,0,0,0,0,0,0,0,0,0,0,0,0,0,0,0,0-.05h0l0-.06h0l1.5-1.78L429,400.61Zm7-8.8c-1.13,1.49-2.29,3-3.45,4.44l11.74,9.34.46-.58s0,0,0,0l.06-.07h0l0-.06v0l0-.05v0l0,0,0,0,0,0,0,0,0,0c.94-1.2,1.87-2.4,2.8-3.62h0l0-.06,0,0,0,0-12-9Zm6.55-9.15c-1,1.55-2.13,3.1-3.22,4.62L451.56,396c1.16-1.62,2.31-3.27,3.44-4.92l-12.41-8.44Zm6.1-9.45c-1,1.59-2,3.19-3,4.76l12.61,8.13.75-1.18v0l0-.06,0,0,0-.05,0,0,0-.05,0,0,0,0,0-.05,0,0,0-.05v0l0-.06h0c.53-.85,1.05-1.68,1.57-2.53h0l0-.08h0l0-.06v0l0-.06,0,0,0,0,.34-.56-12.81-7.8Zm5.61-9.75c-.89,1.64-1.81,3.29-2.74,4.91l13,7.48c.38-.64.75-1.29,1.11-1.94h0l.05-.09c.59-1.06,1.18-2.12,1.76-3.19l-13.18-7.16Zm5.12-10c-.81,1.68-1.65,3.38-2.49,5l13.35,6.83c.05-.1.1-.2.16-.3h0l0-.07h0l0-.07v0l0-.06v0l0-.07h0l0-.07h0l0-.07h0l0-.07h0l0-.08h0l.08-.16h0q1.06-2.12,2.1-4.26l-13.53-6.49ZM464,343.18c-.72,1.72-1.47,3.46-2.24,5.16l13.68,6.15c.82-1.83,1.62-3.65,2.39-5.5L464,343.18Zm4.09-10.47c-.63,1.75-1.3,3.52-2,5.26l14,5.46.3-.79,0-.07h0q.92-2.37,1.78-4.75l-14.11-5.1ZM471.68,322c-.55,1.78-1.12,3.59-1.71,5.36l14.23,4.74c.22-.66.43-1.32.65-2h0l.06-.18h0l0-.08h0l0-.08h0l0-.08h0l0-.07v0l0-.07v0l0-.07v0l0-.07h0l0-.08v0l0-.07h0l0-.07V329l0-.06v0l0-.06v0l0-.06v0l0-.05v0l0-.07v0l.66-2.15L471.68,322Zm3-10.83c-.46,1.81-.94,3.64-1.44,5.43l14.45,4c.34-1.23.67-2.47,1-3.71h0l0-.07v0l0-.07v-.16l0-.07h0l0-.08h0c.13-.53.27-1.06.4-1.59l-14.54-3.66Zm2.47-11c-.37,1.83-.76,3.68-1.17,5.5L490.63,309c.21-.91.41-1.81.6-2.72h0l0-.08h0l0-.08h0l0-.08v-.75l0-.06v0l0-.05v0l0-.06v0l0-.06v0l0-.07v0l0-.08h0c.11-.52.21-1.05.32-1.58l-14.71-2.92Zm1.91-11.09c-.27,1.85-.57,3.72-.89,5.56L493,297.26v0c.21-1.22.41-2.45.6-3.67h0v-.12c.11-.7.22-1.4.32-2.1l-14.84-2.19ZM480.44,278c-.18,1.86-.38,3.75-.61,5.6l14.89,1.81.24-2v-.22h0v-.09h0l.18-1.7h0v-.51h0c0-.46.1-.93.14-1.39L480.44,278Zm.81-11.22c-.09,1.86-.2,3.75-.33,5.62l15,1.07c0-.49.07-1,.1-1.48v-.43h0c.08-1.25.14-2.49.21-3.74h0v-.23h0v-.09l-15-.7Zm15.25-11.3-15,0V256c0,1.7,0,3.43-.06,5.13l15,.33c0-1.62.06-3.25.06-4.87V256h0v-.26h0v-.27Zm-.32-12-15,.76c.09,1.87.17,3.76.22,5.63l15-.4c0-.84-.05-1.69-.08-2.53h0v-.09h0v-.6h0v-.09h0l-.12-2.65Zm-.91-12L480.34,233c.19,1.86.36,3.74.5,5.61l15-1.14c-.08-1.08-.17-2.15-.27-3.22h0v-.6h0v-.09h0c-.07-.68-.13-1.37-.2-2.05Zm-1.51-11.9-14.83,2.25c.28,1.84.54,3.72.78,5.57l14.88-1.88c-.1-.78-.2-1.56-.31-2.33V221.9h0l0-.18h0v-.09h0l-.3-2Zm-2.09-11.82-14.7,3c.37,1.83.72,3.69,1,5.53l14.77-2.62c-.35-2-.73-3.94-1.12-5.9ZM489,196.09l-14.53,3.72c.46,1.81.91,3.65,1.33,5.47l14.61-3.36c-.44-1.95-.92-3.9-1.41-5.83Zm-3.27-11.55L471.38,189c.56,1.79,1.09,3.6,1.6,5.39l14.43-4.08q-.81-2.9-1.7-5.76Zm-3.85-11.36-14.08,5.16c.64,1.76,1.27,3.54,1.87,5.31l14.2-4.81c-.31-.93-.62-1.84-1-2.76v0l0-.06,0-.08h0c-.32-.91-.65-1.82-1-2.73ZM477.45,162l-13.81,5.87c.73,1.71,1.45,3.46,2.13,5.2l14-5.52q-1.1-2.79-2.27-5.55Zm-5-10.92L459,157.65c.82,1.68,1.62,3.39,2.4,5.09L475,156.53l-.07-.16h0v0l0-.06h0q-1.19-2.61-2.43-5.17ZM467,140.44l-13.15,7.22c.9,1.63,1.79,3.3,2.64,5l13.33-6.89q-1.16-2.23-2.37-4.46v0l0-.06,0,0,0,0,0-.06,0,0,0-.08h0l-.29-.52Zm-6-10.37-12.77,7.86c1,1.59,1.95,3.22,2.89,4.83l13-7.54c-.7-1.19-1.4-2.37-2.11-3.55v0l0-.06,0,0,0,0,0-.06v0c-.27-.45-.55-.91-.84-1.37ZM454.39,120,442,128.5c1.06,1.54,2.11,3.12,3.13,4.68L457.72,125c-1.05-1.62-2.11-3.21-3.2-4.8v0l0-.05,0,0,0,0,0,0Zm-7-9.72-11.92,9.1c1.13,1.48,2.26,3,3.35,4.52l12.15-8.8c-.84-1.17-1.7-2.32-2.56-3.47h0l-.11-.15h0l0-.06h0l-.05-.06v0l-.05-.06h0l0-.06v0l0-.05,0,0,0,0,0,0,0,0,0,0,0,0,0,0h0l-.44-.58Zm-7.51-9.35-11.46,9.67c1.21,1.43,2.41,2.89,3.58,4.35l11.7-9.39-1.39-1.71h0l-.06-.07h0l0-.06h0l0-.06v0l0,0,0,0,0,0,0,0,0,0,0,0,0,0-.05,0v0l-.05-.06h0l-.71-.87h0l-.05-.07h0l-.05-.06h0l-.05-.06h0l0-.05,0,0,0,0,0,0,0,0,0,0,0,0,0,0,0,0,0,0,0,0,0-.05v0l-.05-.06h0l-.59-.69Zm-8-9-11,10.24c1.27,1.36,2.55,2.76,3.79,4.16l11.21-10c-1.33-1.5-2.67-3-4-4.44Zm-8.41-8.57L413,94.16c1.34,1.3,2.68,2.64,4,4l10.71-10.5c-.85-.87-1.71-1.73-2.57-2.58h0L425.1,85h0l-.05,0,0,0,0,0,0,0,0,0,0,0,0,0,0,0,0,0-.05,0v0l-.05,0h0l-.07-.06h0c-.37-.37-.75-.75-1.14-1.12Zm-8.81-8.14-9.9,11.27c1.4,1.24,2.81,2.5,4.18,3.77l10.18-11-1.11-1h0l-.06,0h0l-.06,0,0,0,0,0,0,0,0,0,0,0,0,0,0,0,0,0,0,0,0,0-.05,0h0l-.06-.05h0l-2.78-2.48Zm-9.21-7.69-9.33,11.75c1.46,1.16,2.93,2.35,4.37,3.55l9.61-11.51c-.21-.18-.41-.35-.63-.52h0l-.05,0,0,0,0,0,0,0,0,0,0,0,0,0-.05,0h0l-.06,0h0l-2.82-2.3h0l-.05,0,0,0h0l-.71-.57Zm-9.58-7.23-8.73,12.2c1.52,1.09,3,2.21,4.53,3.33l9-12-.9-.67,0,0-.05,0,0,0,0,0-.05,0,0,0-.06-.05h0l-.07,0h0c-1.19-.88-2.38-1.75-3.59-2.62ZM386,53.59l-8.12,12.62c1.57,1,3.15,2.05,4.69,3.1L391,56.9l-1.84-1.23h0l-.07-.05h0l-.06,0h0l-.05,0,0,0,0,0,0,0,0,0,0,0,0,0-.05,0,0,0-.06,0h0l-.06,0h0l-.07,0h0L386,53.59ZM375.7,47.36l-7.48,13c1.62.93,3.25,1.89,4.84,2.86l7.8-12.81-1.94-1.17h0l-.07,0-.06,0,0,0-1.86-1.09h0l-.07,0h0l-.07,0h0l-.06,0,0,0,0,0,0,0h0l-.86-.5Zm-10.55-5.72L358.33,55c1.66.85,3.34,1.73,5,2.62l7.15-13.19-.25-.13h0l-.08,0h0l-.07,0h0l-.07,0h0l-.06,0h0l-.06,0,0,0,0,0,0,0-.05,0h0l-.05,0,0,0-.05,0,0,0-.05,0h0l-.06,0,0,0-.05,0h0l0,0,0,0-.06,0,0,0-.06,0h0l-.07,0h0l-.07,0h0c-1.15-.61-2.31-1.22-3.48-1.82h0l-.05,0-.06,0,0,0Zm-10.82-5.19-6.14,13.69c1.7.76,3.42,1.56,5.1,2.37L359.77,39l-1.06-.51h0l-.06,0,0,0-.05,0,0,0,0,0-.05,0h0l-.06,0h0l-.07,0h0c-1-.47-2-1-3.07-1.41h0l-.08,0h0l-.06,0,0,0h0l-.05,0h0l-.55-.25Zm-11.07-4.63-5.45,14c1.74.67,3.5,1.38,5.22,2.1l5.79-13.83c-1-.41-1.94-.81-2.92-1.2h0l-.07,0h0l-.05,0h0l0,0-.05,0h0l0,0h0l-.05,0h0l-.06,0h0l-.05,0h0l-.06,0h0l-.06,0h0l-.07,0h0l-.07,0h0l-.07,0h0l-.07,0h0l-.08,0h0l-1.39-.55ZM332,27.75,327.24,42c1.77.59,3.55,1.21,5.31,1.84l5.09-14.11L335,28.76h0l-.07,0h0l-.06,0-.05,0h0l-.08,0h0q-1.33-.46-2.67-.9Zm-11.48-3.5-4,14.45c1.8.5,3.62,1,5.4,1.57l4.38-14.35-3.32-1h0l-.07,0h0l0,0h-.08l-.07,0h0c-.71-.2-1.43-.41-2.15-.6Zm-11.63-2.92L305.57,36c1.82.41,3.66.85,5.47,1.3l3.65-14.55-.62-.15h-.15l-.07,0h0l-3.07-.74h0l-.06,0-1.82-.41ZM297.09,19l-2.55,14.78c1.84.31,3.7.66,5.53,1L303,20.09c-2-.39-3.92-.75-5.89-1.09Zm-11.88-1.74-1.8,14.89c1.85.22,3.73.47,5.58.74l2.17-14.84-1.24-.18h-2.11l-.08,0h-.1l-.18,0h0l-2.24-.28Zm-11.94-1.15-1.06,15c1.86.14,3.75.29,5.61.47l1.43-14.93-1.86-.17h-.61c-1.17-.11-2.33-.2-3.51-.28Zm-12-.55-.32,15c1.87,0,3.76.11,5.63.19l.69-15c-1.21-.06-2.43-.1-3.65-.14H263l-.68,0h-1Z" transform="translate(-15.5 -15.5)" fill="#fff"/><path d="M256,96h-.62c-.78,0-1.56,0-2.33,0H253a1.5,1.5,0,0,0,0,3h0c1,0,2,0,2.95,0a1.5,1.5,0,0,0,0-3Zm-8.91.25H247l-1.49.09h-1.22l-.28,0a1.5,1.5,0,0,0,.11,3h.11l2.94-.19a1.5,1.5,0,0,0-.08-3ZM238.2,97H238c-1,.11-2,.23-2.95.36a1.5,1.5,0,0,0,.2,3l.2,0,2.92-.35a1.5,1.5,0,0,0,1.32-1.66A1.49,1.49,0,0,0,238.2,97Zm-8.82,1.24a1.14,1.14,0,0,0-.26,0l-.5.08h-.09l-.11,0h0l-1.91.34h0l-.11,0h-.05l-.18,0a1.5,1.5,0,0,0,.28,3l.28,0c1-.18,1.92-.35,2.89-.51a1.5,1.5,0,0,0-.24-3ZM220.63,100a1.12,1.12,0,0,0-.32,0c-.35.08-.7.15-1,.24h0l-.11,0h-.1l-1,.24h-.21l-.44.1a1.5,1.5,0,0,0,.37,3,1.49,1.49,0,0,0,.36-.05l2.86-.68a1.5,1.5,0,0,0-.33-3ZM212,102.19a1.52,1.52,0,0,0-.42.06c-1,.27-1.92.56-2.87.85a1.5,1.5,0,0,0,.44,2.94,1.31,1.31,0,0,0,.44-.07l2.82-.84a1.5,1.5,0,0,0-.41-2.94Zm-8.49,2.71a1.74,1.74,0,0,0-.5.08l-1,.35h-.32l0,0h0l0,0h0l-.06,0h0l-.11,0h0l-.05,0h0l-.11,0h-.07l-.1,0H201l0,0h-.09l0,0h0l-.61.22a1.5,1.5,0,0,0-.88,1.93,1.48,1.48,0,0,0,1.4,1,1.42,1.42,0,0,0,.53-.1c.91-.34,1.84-.67,2.76-1a1.5,1.5,0,0,0-.49-2.91Zm-8.33,3.19a1.44,1.44,0,0,0-.57.11h0l-.06,0h0l-.08,0h0l-.17.07h0l-.69.29h0l-.09,0h0l-.08,0h0l-.07,0h0l-.06,0h0l-.07,0h0l0,0-.06,0,0,0h-.05l0,0-.08,0h0l0,0h0l-.1,0h0l-.66.29h0l-.09,0h0a1.5,1.5,0,0,0-.76,2,1.48,1.48,0,0,0,1.37.89,1.57,1.57,0,0,0,.6-.12c.9-.4,1.8-.78,2.71-1.16a1.5,1.5,0,0,0-.58-2.88Zm-8.13,3.65a1.51,1.51,0,0,0-.65.15l-1.26.62h0l-.08,0h0l-.07,0h0l-.07,0,0,0h0l0,0h0l-.1,0h0l-1,.49a1.5,1.5,0,0,0,1.36,2.67c.87-.45,1.75-.88,2.64-1.31a1.5,1.5,0,0,0-.66-2.85Zm-7.91,4.11a1.47,1.47,0,0,0-.73.19l-.07,0h0l-.07,0h0l-.06,0,0,0,0,0-.06,0h0l-2.23,1.27a1.5,1.5,0,1,0,1.51,2.59l2.56-1.45a1.5,1.5,0,0,0-.73-2.81Zm-7.67,4.55a1.52,1.52,0,0,0-.79.22l-.51.33h0l-.09,0,0,0,0,0-.06,0h0l-.06,0h0l-1.1.71h0l-.07,0h0l-.05,0,0,0h0l-.44.29A1.5,1.5,0,0,0,169,125a1.46,1.46,0,0,0,.82-.25l2.47-1.6a1.5,1.5,0,0,0,.47-2.07,1.49,1.49,0,0,0-1.27-.69Zm-7.4,5a1.56,1.56,0,0,0-.87.27l-.53.38h0l-.07,0h0l-.05,0h0l-.06,0h0l0,0,0,0-.06,0,0,0,0,0,0,0-.06,0,0,0,0,0,0,0,0,0,0,0-.06,0,0,0,0,0,0,0-.06,0,0,0-.05,0,0,0-.06,0,0,0-.05,0h0l-.07,0,0,0-.05,0h0l-.05,0,0,0-.06,0,0,0,0,0,0,0,0,0,0,0,0,0,0,0,0,0,0,0h0l-.12.08a1.5,1.5,0,0,0,.9,2.7,1.48,1.48,0,0,0,.89-.29c.79-.59,1.58-1.16,2.38-1.73a1.49,1.49,0,0,0,.35-2.09,1.46,1.46,0,0,0-1.22-.63ZM157,130.74a1.47,1.47,0,0,0-.93.33h0l0,0h0l-.07.06h0l-1.15.94h0l-.07.05h0l-.06.05h0l-.06.05,0,0,0,0,0,0h0l-.08.07h0l-.62.52a1.49,1.49,0,0,0-.18,2.1,1.47,1.47,0,0,0,1.15.54,1.5,1.5,0,0,0,1-.34c.75-.63,1.51-1.25,2.28-1.87a1.5,1.5,0,0,0-.94-2.67Zm-6.8,5.77a1.54,1.54,0,0,0-1,.38v0l-.05,0h0l-.06,0,0,0-.06.05h0l-.06.06h0l-.06.06h0l-.06.06h0l-.06.06h0l-.06,0h0l-.06.06h0l-.13.11h0l-.13.12h0l-.06.05h0l-.06.05h0l-.07.06h0L148,138h0l-.06.05h0l-.13.12h0l-.06.06h0l-.06.06h0l-.06.06h0l-.06.06h0l-.07.06h0l-.48.44a1.5,1.5,0,1,0,2,2.19c.72-.66,1.45-1.33,2.18-2a1.5,1.5,0,0,0-1-2.62Zm-6.46,6.14a1.49,1.49,0,0,0-1.06.44l-.14.13h0l-.12.12h0l-.05.06,0,0,0,0,0,0,0,0,0,0v0l-.12.11h0c-.36.35-.7.7-1.05,1.06v0l-.06.06,0,0,0,0,0,0,0,0,0,0,0,0-.06.06h0l0,.06h0l-.06.07h0a1.49,1.49,0,0,0,1.08,2.53,1.48,1.48,0,0,0,1.08-.46c.68-.71,1.37-1.41,2.06-2.1a1.5,1.5,0,0,0,0-2.12,1.48,1.48,0,0,0-1.06-.44Zm-6.11,6.49a1.54,1.54,0,0,0-1.12.49c-.11.14-.23.26-.34.39h0l-.05.06,0,0,0,0-.05,0h0l-.06.07h0c-.48.54-.95,1.09-1.42,1.63a1.5,1.5,0,1,0,2.28,1.95c.64-.74,1.28-1.48,1.94-2.21a1.5,1.5,0,0,0-.13-2.12,1.45,1.45,0,0,0-1-.38ZM131.85,156a1.48,1.48,0,0,0-1.17.56c-.11.14-.22.27-.32.41h0l0,.05,0,0,0,0,0,0,0,0,0,.06,0,0,0,.06h0l-.05.07h0c-.4.52-.81,1-1.2,1.55a1.5,1.5,0,0,0,.28,2.11,1.53,1.53,0,0,0,.91.3,1.5,1.5,0,0,0,1.19-.58c.6-.78,1.2-1.56,1.81-2.33a1.49,1.49,0,0,0-.24-2.1,1.51,1.51,0,0,0-.93-.33Zm-5.35,7.13a1.49,1.49,0,0,0-1.23.64l-.32.45h0l0,.07h0l0,.06,0,0,0,.05,0,0,0,0,0,0,0,.05,0,0,0,0,0,0,0,.05,0,0,0,0,0,0,0,0,0,0,0,.05,0,0,0,.05,0,0,0,.06v0l0,.06h0l0,.07h0c-.22.3-.43.61-.64.92a1.5,1.5,0,0,0,2.48,1.69l1.68-2.42a1.49,1.49,0,0,0-.36-2.09,1.45,1.45,0,0,0-.86-.28Zm-4.94,7.42a1.49,1.49,0,0,0-1.27.7l-.33.53h0l0,0,0,0,0,0,0,0,0,0,0,.07h0l0,.06v0l0,.07h0l0,.07h0l0,.08h0l0,.07h0l0,.07v0l0,.07h0l0,.06v0l0,.06v0l0,0,0,0,0,.05,0,0v0l-.09.14h0l-.42.69a1.5,1.5,0,0,0,.52,2.05,1.46,1.46,0,0,0,.77.22,1.5,1.5,0,0,0,1.29-.73c.5-.84,1-1.68,1.54-2.51a1.51,1.51,0,0,0-.48-2.07,1.54,1.54,0,0,0-.79-.23ZM117,178.2a1.49,1.49,0,0,0-1.31.77v0h0l0,.1h0c-.46.84-.91,1.68-1.36,2.52a1.5,1.5,0,0,0,.63,2,1.48,1.48,0,0,0,2-.63c.46-.86.92-1.73,1.39-2.59a1.5,1.5,0,0,0-.59-2,1.54,1.54,0,0,0-.72-.18ZM113,186.13a1.51,1.51,0,0,0-1.36.85l-.48,1h0l0,.07v0l0,.07h0l0,.07v0l0,.06,0,0,0,.06v0l0,.06,0,0,0,0v0l0,.06,0,0,0,0v0l0,.06,0,0v0l0,.06,0,0,0,0v0l0,.06v0l0,.05,0,0,0,.06v0l0,0v0l0,.07v0l0,0v0l0,.06,0,0v0a1.5,1.5,0,0,0,.74,2,1.44,1.44,0,0,0,.63.14,1.5,1.5,0,0,0,1.36-.88c.41-.89.82-1.78,1.25-2.67a1.5,1.5,0,0,0-.71-2,1.48,1.48,0,0,0-.64-.14Zm-3.63,8.14a1.48,1.48,0,0,0-1.38.93c-.22.53-.44,1.07-.65,1.6h0l0,0v0c-.14.37-.29.73-.43,1.1a1.5,1.5,0,0,0,.86,1.94,1.44,1.44,0,0,0,.54.1,1.5,1.5,0,0,0,1.4-1c.35-.91.72-1.82,1.09-2.73a1.5,1.5,0,0,0-.82-2,1.6,1.6,0,0,0-.57-.11Zm-3.15,8.34a1.51,1.51,0,0,0-1.42,1l-.78,2.3h0l0,.11v.05l0,0h0c0,.11-.07.22-.11.33a1.5,1.5,0,0,0,2.86.92c.3-.93.62-1.86.94-2.79a1.51,1.51,0,0,0-.93-1.91,1.4,1.4,0,0,0-.49-.08Zm-2.68,8.5a1.5,1.5,0,0,0-1.44,1.09c-.14.47-.27,1-.4,1.42h0l0,.17h0v.05h0l0,0h0v.5l0,.07h0v.08h0l0,.12v.06h0l0,.13h0v0h0l0,.13h0a1.5,1.5,0,0,0,1.06,1.84,1.74,1.74,0,0,0,.39,0,1.51,1.51,0,0,0,1.45-1.12c.25-1,.51-1.9.77-2.84a1.49,1.49,0,0,0-1-1.85,1.45,1.45,0,0,0-.41-.06Zm-2.19,8.64a1.49,1.49,0,0,0-1.46,1.18c0,.1,0,.21-.07.31h0v.26h0c-.1.42-.19.84-.28,1.27h0v.06h0v.06h0v.26h0c-.05.23-.09.46-.14.69a1.5,1.5,0,0,0,1.17,1.77,1.53,1.53,0,0,0,.3,0,1.51,1.51,0,0,0,1.47-1.2c.2-1,.4-1.92.61-2.88a1.49,1.49,0,0,0-1.13-1.79,1.24,1.24,0,0,0-.33,0Zm-1.7,8.75a1.5,1.5,0,0,0-1.48,1.26l-.18,1.1h0v0h0l0,.12v.06h0l0,.12h0v0h0l0,.12v.06h0l0,.12h0v0h0l0,.13h0v0h0l0,.14h0c0,.25-.07.5-.11.74a1.5,1.5,0,0,0,1.27,1.7l.22,0a1.5,1.5,0,0,0,1.48-1.28q.21-1.47.45-2.91a1.5,1.5,0,0,0-1.23-1.73l-.25,0Zm-1.2,8.83a1.5,1.5,0,0,0-1.49,1.34c0,.23-.05.46-.08.69v.1L96.69,241h0v.17c0,.15,0,.3-.05.46A1.52,1.52,0,0,0,98,243.29h.13a1.5,1.5,0,0,0,1.49-1.37c.09-1,.19-1.95.29-2.92a1.51,1.51,0,0,0-1.33-1.66Zm-.71,8.89a1.51,1.51,0,0,0-1.5,1.43,2.44,2.44,0,0,1,0,.27v.22h0v.13h0c0,.58-.05,1.15-.07,1.72h0v.17c0,.15,0,.31,0,.46a1.5,1.5,0,0,0,1.45,1.55h0a1.51,1.51,0,0,0,1.5-1.45q0-1.47.12-2.94a1.51,1.51,0,0,0-1.42-1.58Zm-.21,8.92h0a1.5,1.5,0,0,0-1.5,1.5c0,.58,0,1.16,0,1.75v.08h0c0,.39,0,.78,0,1.16a1.5,1.5,0,0,0,1.5,1.47h0A1.5,1.5,0,0,0,99,259.58c0-1,0-2,0-2.95a1.5,1.5,0,0,0-1.5-1.49Zm.28,8.91h-.09a1.5,1.5,0,0,0-1.4,1.59c0,.14,0,.28,0,.42h0v.28h0v.06h0v.06h0c0,.63.08,1.27.13,1.9h0v.13h0v.06h0v.05h0A1.5,1.5,0,0,0,98,270h.11a1.49,1.49,0,0,0,1.38-1.61c-.07-1-.14-2-.2-2.94a1.51,1.51,0,0,0-1.5-1.41Zm.78,8.88h-.17a1.51,1.51,0,0,0-1.32,1.66l.15,1.28h0v.21h0c.06.49.13,1,.19,1.48a1.51,1.51,0,0,0,1.49,1.3h.2a1.51,1.51,0,0,0,1.29-1.69c-.13-1-.26-1.94-.37-2.92a1.51,1.51,0,0,0-1.49-1.33Zm1.28,8.82a1.09,1.09,0,0,0-.26,0,1.48,1.48,0,0,0-1.22,1.73c0,.32.11.64.17,1v.28h0v.06h0v.05h0l.12.67h0v.06h0v.05h0v.15l.12.63a1.49,1.49,0,0,0,1.47,1.22,1.33,1.33,0,0,0,.28,0,1.49,1.49,0,0,0,1.19-1.76c-.18-1-.36-1.92-.53-2.89a1.5,1.5,0,0,0-1.47-1.25Zm1.77,8.74a1.39,1.39,0,0,0-.35,0,1.51,1.51,0,0,0-1.12,1.8c.23,1,.47,1.95.71,2.92a1.49,1.49,0,0,0,1.45,1.13,1.57,1.57,0,0,0,.37-.05,1.5,1.5,0,0,0,1.09-1.82c-.24-.95-.47-1.9-.7-2.86a1.49,1.49,0,0,0-1.45-1.16Zm2.26,8.62a1.59,1.59,0,0,0-.43.06,1.52,1.52,0,0,0-1,1.86c.17.57.34,1.15.52,1.72h0l0,.05h0V303h0v0h0c.09.3.18.6.28.9a1.5,1.5,0,0,0,1.43,1,1.45,1.45,0,0,0,.45-.07,1.5,1.5,0,0,0,1-1.88c-.29-.94-.58-1.88-.86-2.82a1.5,1.5,0,0,0-1.43-1.08Zm2.74,8.48a1.43,1.43,0,0,0-.5.09,1.5,1.5,0,0,0-.91,1.92l.33.92h0l0,0v.16h0l.6,1.6h0v0l0,0h0a1.51,1.51,0,0,0,1.4,1,1.6,1.6,0,0,0,.53-.09,1.5,1.5,0,0,0,.88-1.93c-.35-.92-.69-1.84-1-2.77a1.49,1.49,0,0,0-1.41-1Zm3.22,8.31a1.5,1.5,0,0,0-1.38,2.08l0,.12v0l0,0,0,.07v0l.07.16h0c.27.63.54,1.26.82,1.89h0c.06.15.13.29.19.43a1.5,1.5,0,0,0,2,.76,1.48,1.48,0,0,0,.76-2c-.39-.9-.78-1.8-1.16-2.71a1.52,1.52,0,0,0-1.39-.92Zm3.69,8.12a1.55,1.55,0,0,0-.66.15,1.51,1.51,0,0,0-.69,2l0,.08h0l.07.16h0l0,.08h0l0,.07v0l0,.07h0l0,.07h0l0,.08h0l0,.07h0l0,.08h0l.08.17h0l.08.17h0c.13.25.26.5.38.75h0l.09.16h0l0,.08h0l0,.07v0l0,.07v0l0,0v0l0,.06,0,.05h0l.07.13a1.5,1.5,0,0,0,1.33.81,1.37,1.37,0,0,0,.68-.17,1.51,1.51,0,0,0,.66-2c-.45-.87-.89-1.75-1.32-2.63a1.51,1.51,0,0,0-1.35-.84Zm4.14,7.9a1.5,1.5,0,0,0-1.31,2.22l.16.29h0l.09.16h0l.06.09h0l0,.05h0l0,.08v0l0,.05h0l0,.08v0l.08.14v0l.09.15h0c.27.48.55.95.83,1.43a1.5,1.5,0,0,0,2.58-1.52c-.49-.85-1-1.7-1.46-2.56a1.51,1.51,0,0,0-1.31-.76Zm4.58,7.65a1.49,1.49,0,0,0-.81.23,1.5,1.5,0,0,0-.46,2.07c.09.13.17.26.25.39h0l0,.07h0l0,.06v0l0,.06,0,0,0,0,0,.05,0,0,0,0,0,0,0,.08h0l0,0v0l.06.08h0l0,.05h0l.06.09h0l.09.14v0l.09.14h0l0,.08h0l0,.05v0l.05.07v0l0,0h0l.06.09h0l.09.14h0c.09.15.18.29.28.43a1.5,1.5,0,0,0,2.08.42,1.5,1.5,0,0,0,.42-2.08c-.55-.82-1.08-1.64-1.61-2.47a1.48,1.48,0,0,0-1.26-.69Zm5,7.38a1.49,1.49,0,0,0-1.22,2.37l.6.83h0l.1.14v0l.05.06v0l0,0,0,0,0,0,0,0,0,0,.09.13h0c.22.31.45.61.67.91h0l.09.1a1.46,1.46,0,0,0,1.2.6,1.51,1.51,0,0,0,1.2-2.4c-.59-.78-1.17-1.57-1.75-2.37a1.48,1.48,0,0,0-1.21-.62Zm5.4,7.08a1.47,1.47,0,0,0-.94.34,1.5,1.5,0,0,0-.23,2.1l.27.33h0l.07.09h0l0,.05h0l0,.06,0,0,0,0,0,.05,0,0,0,0v0l.05.06,0,0,0,0h0l.05.07h0l.11.14h0l.53.64h0l.06.07h0l0,.06,0,0,.05.05,0,0,0,0,.27.32a1.48,1.48,0,0,0,1.14.53,1.54,1.54,0,0,0,1-.35,1.51,1.51,0,0,0,.18-2.12c-.63-.75-1.25-1.5-1.87-2.27a1.5,1.5,0,0,0-1.17-.56Zm5.8,6.78a1.5,1.5,0,0,0-1.11,2.51h0l0,.06h0l.06.06h0c.63.69,1.27,1.38,1.91,2.06a1.45,1.45,0,0,0,1.09.47,1.49,1.49,0,0,0,1.1-2.52c-.68-.72-1.34-1.44-2-2.17a1.52,1.52,0,0,0-1.11-.49Zm6.16,6.44a1.5,1.5,0,0,0-1.06,2.56c.72.71,1.44,1.41,2.17,2.1a1.51,1.51,0,0,0,1,.41,1.5,1.5,0,0,0,1-2.59c-.71-.67-1.42-1.36-2.11-2.05a1.52,1.52,0,0,0-1.06-.43Zm6.52,6.09a1.52,1.52,0,0,0-1.13.5,1.5,1.5,0,0,0,.13,2.12h0l.05,0,0,0,.05.05,0,0,0,0,.06.05,0,0,0,0h0l.08.07h0l0,0h0l.07.06v0l0,0h0l.07.07,0,0,0,0,0,0,0,0,0,0,0,0,.06.05h0l.13.11h0l1.21,1a1.51,1.51,0,0,0,2.11-.17,1.5,1.5,0,0,0-.17-2.12c-.74-.64-1.49-1.28-2.22-1.93a1.51,1.51,0,0,0-1-.37Zm6.84,5.71a1.53,1.53,0,0,0-1.18.57,1.5,1.5,0,0,0,.25,2.1l.7.55,0,0,0,0,.05,0,0,0,0,0,0,0,.07,0h0l.06,0h0l.07,0h0l1.26,1a1.49,1.49,0,0,0,.91.31,1.52,1.52,0,0,0,1.2-.6,1.5,1.5,0,0,0-.29-2.1c-.78-.59-1.56-1.19-2.33-1.8a1.48,1.48,0,0,0-.93-.32Zm7.15,5.32a1.5,1.5,0,0,0-.86,2.73l.92.64h0l.85.58h0a1.88,1.88,0,0,0,.23.16h0l.08,0h0l.07.05h0l.07.05h0l.07.05h0l0,0,0,0,0,0,0,0a1.47,1.47,0,0,0,.83.25,1.5,1.5,0,0,0,.84-2.74L166,384.64a1.51,1.51,0,0,0-.86-.27Zm7.44,4.91a1.48,1.48,0,0,0-1.27.71,1.51,1.51,0,0,0,.48,2.07l2.4,1.46h0l.06,0h0l0,0h0a1.41,1.41,0,0,0,.76.21,1.5,1.5,0,0,0,.77-2.79l-2.52-1.52a1.42,1.42,0,0,0-.79-.23Zm7.71,4.49a1.5,1.5,0,0,0-.73,2.81l1.53.82h0l.15.07,0,0,.06,0,0,0,0,0,.06,0h0l.07,0h0l.07,0h0l.07,0h0l.08,0h0l.08,0h0l.08,0h0l.08.05h0l.08,0h0l.08,0h0a1.44,1.44,0,0,0,.69.17,1.5,1.5,0,0,0,.69-2.83c-.87-.45-1.73-.91-2.59-1.38a1.45,1.45,0,0,0-.72-.18Zm7.94,4a1.5,1.5,0,0,0-.64,2.85l.05,0h0l0,0h0l.06,0,0,0h0l0,0h0l.05,0h0l.07,0h0l.06,0h0l.07,0h0l.06,0h0l.07,0h0l.07,0h0l.08,0h0l.07,0h0l.07,0h0l.07,0h0l.05,0,0,0,.06,0h0l0,0,0,0,.06,0,0,0h0l.15.07h0l.9.41a1.46,1.46,0,0,0,.61.13,1.5,1.5,0,0,0,.62-2.87c-.9-.4-1.79-.82-2.68-1.24a1.57,1.57,0,0,0-.64-.14Zm8.16,3.59a1.5,1.5,0,0,0-.57,2.88l.56.23h0l0,0,.06,0,0,0,.06,0h0l.07,0h0l1.92.75a1.44,1.44,0,0,0,.54.1,1.5,1.5,0,0,0,.53-2.9c-.91-.35-1.83-.71-2.73-1.08a1.44,1.44,0,0,0-.57-.11Zm8.35,3.12a1.5,1.5,0,0,0-.49,2.92l2.39.79h0l0,0h0l.06,0h.13l.22.07a1.51,1.51,0,0,0,.46.07,1.49,1.49,0,0,0,1.43-1,1.51,1.51,0,0,0-1-1.89c-.93-.3-1.87-.6-2.79-.92a1.4,1.4,0,0,0-.49-.08Zm8.51,2.64a1.5,1.5,0,0,0-.4,2.95l2.9.78a1.55,1.55,0,0,0,.37,0,1.5,1.5,0,0,0,.38-2.95c-.95-.24-1.9-.5-2.84-.76a1.45,1.45,0,0,0-.41-.06Zm8.65,2.16a1.5,1.5,0,0,0-.32,3c.89.2,1.79.39,2.69.57h0l.12,0h.13l.29,0a1.5,1.5,0,0,0,.3-3l-2.88-.61a1.84,1.84,0,0,0-.33,0Zm8.76,1.66a1.5,1.5,0,0,0-.24,3l.65.1h0l.12,0h.23l2,.29.2,0a1.5,1.5,0,0,0,.21-3c-1-.14-1.94-.28-2.91-.44l-.24,0Zm8.84,1.17a1.5,1.5,0,0,0-.16,3l.73.07h1.69l.57.05h.13a1.5,1.5,0,0,0,.12-3c-1-.08-2-.17-2.93-.27Zm8.89.67a1.5,1.5,0,0,0-.08,3l.63,0h.18l2.2.08h0a1.5,1.5,0,0,0,0-3c-1,0-2-.06-2.94-.11Zm11.89.12h0c-1,0-2,.05-2.94.05a1.51,1.51,0,0,0-1.49,1.52,1.49,1.49,0,0,0,1.5,1.48h0l2,0h.23l.8,0a1.5,1.5,0,0,0,0-3Zm8.9-.48H269l-2.94.21a1.5,1.5,0,0,0,.1,3h.09c1-.06,2-.13,3-.21a1.5,1.5,0,0,0-.12-3Zm8.86-1-.2,0-2.92.38a1.5,1.5,0,0,0,.17,3h.18l1-.13H277l.13,0h.24l.13,0h.35l.4-.06a1.5,1.5,0,0,0-.21-3ZM286.8,410l-.29,0c-1,.19-1.92.37-2.89.54a1.5,1.5,0,0,0-1.22,1.74,1.52,1.52,0,0,0,1.48,1.24l.26,0,1.41-.25h.21l1.33-.26a1.5,1.5,0,0,0-.29-3Zm8.7-2a1.24,1.24,0,0,0-.38,0c-.94.24-1.9.48-2.85.7a1.5,1.5,0,0,0,.34,3,1.32,1.32,0,0,0,.34,0l.15,0h.1l1.07-.26h.22l1.39-.35a1.5,1.5,0,0,0-.38-2.95Zm8.57-2.46a1.47,1.47,0,0,0-.46.07c-.93.3-1.87.59-2.81.87a1.49,1.49,0,0,0-1,1.86,1.5,1.5,0,0,0,1.43,1.08,1.25,1.25,0,0,0,.43-.07c1-.28,1.92-.58,2.87-.88a1.5,1.5,0,0,0-.45-2.93Zm8.41-2.94a1.47,1.47,0,0,0-.54.1c-.91.35-1.83.69-2.75,1a1.5,1.5,0,0,0,1,2.83l1-.36h.25l.05,0h0l.92-.34h0l.11,0h.09l.42-.17a1.49,1.49,0,0,0,.87-1.93,1.51,1.51,0,0,0-1.4-1Zm8.23-3.41a1.49,1.49,0,0,0-.61.13c-.89.4-1.79.79-2.7,1.18a1.5,1.5,0,0,0,.59,2.88,1.47,1.47,0,0,0,.58-.12l.49-.21h0l.17-.07h0l.16-.07h0l.16-.07h0l.16-.07h0l.45-.19h0l.16-.07h0l.15-.06,0,0,.05,0,.05,0h0l0,0h0l.08,0h0l.51-.22a1.5,1.5,0,0,0,.75-2,1.48,1.48,0,0,0-1.37-.89Zm8-3.87a1.4,1.4,0,0,0-.68.17c-.88.45-1.75.89-2.63,1.32a1.5,1.5,0,0,0,.66,2.85,1.47,1.47,0,0,0,.67-.16l1.84-.92h0l.08,0h0l.08,0h0l.06,0h0l0,0,.53-.27a1.5,1.5,0,0,0-.7-2.83Zm7.8-4.32a1.5,1.5,0,0,0-.76.21q-1.26.75-2.55,1.47a1.5,1.5,0,0,0,.74,2.81,1.42,1.42,0,0,0,.74-.2l.65-.37h0l.08,0h0l.08-.05h0l.07-.05h0l.07,0h0l.07,0h0l.14-.08h0l.07,0h0l.07,0h0l.07,0h0l.07,0h0l.07-.05h0l1-.57a1.5,1.5,0,0,0-.77-2.79Zm7.55-4.75a1.52,1.52,0,0,0-.84.25q-1.22.82-2.46,1.62a1.5,1.5,0,0,0,.81,2.76,1.58,1.58,0,0,0,.81-.23l1-.64h0l0,0,.05,0,0,0,.05,0h0l.07,0h0l1.16-.77h0l.06,0h0a1.5,1.5,0,0,0-.83-2.74Zm7.26-5.17a1.52,1.52,0,0,0-.9.3c-.79.6-1.57,1.18-2.37,1.76a1.5,1.5,0,0,0,.88,2.71,1.51,1.51,0,0,0,.88-.28l.49-.36h0l.09-.06h0l0,0,0,0,.06,0,0,0,0,0,0,0,.05,0,0,0,0,0,.06,0,0,0,0,0,0,0,0,0,0,0,0,0,.05,0,0,0,0,0,0,0,.07-.05h0l0,0h0l.09-.07h0l.14-.1h0l.72-.54a1.5,1.5,0,0,0,.29-2.1,1.52,1.52,0,0,0-1.2-.6Zm7-5.56a1.47,1.47,0,0,0-1,.35c-.75.64-1.51,1.26-2.27,1.88a1.5,1.5,0,0,0-.21,2.11,1.46,1.46,0,0,0,1.16.56,1.5,1.5,0,0,0,1-.34h0l.05,0,0,0h0l1.65-1.37h0l.13-.11,0,0,.06,0,0,0,0,0,0,0,0,0,0,0,0,0,.06,0v0l0,0h0a1.5,1.5,0,0,0-1-2.64Zm6.64-5.95a1.51,1.51,0,0,0-1,.41l-2.16,2a1.5,1.5,0,0,0,2,2.22l.32-.29h0l0,0,.05,0,0,0,.06-.05h0l1.71-1.6a1.5,1.5,0,0,0-1-2.59Zm6.3-6.31a1.49,1.49,0,0,0-1.09.47c-.68.72-1.36,1.42-2,2.12a1.5,1.5,0,1,0,2.14,2.1l.06-.06h0l.05-.05h0l.06-.06v0l0,0,0,0,0,0,0,0,0,0,0,0,0,0,0,0,0,0,0,0,0,0,0,0,0,0,0,0,0,0,0,0,0,0,0,0,.06-.06h0l.06-.05h0l.06-.06h0l.13-.13h0l1-1a1.5,1.5,0,0,0-1.09-2.53Zm5.94-6.65a1.51,1.51,0,0,0-1.15.53c-.63.76-1.27,1.5-1.92,2.24a1.51,1.51,0,0,0,1.13,2.49,1.51,1.51,0,0,0,1.12-.51h0l.05-.06h0c.64-.73,1.27-1.46,1.89-2.2a1.51,1.51,0,0,0-1.14-2.47Zm5.55-7a1.52,1.52,0,0,0-1.2.6c-.59.78-1.18,1.56-1.79,2.33a1.51,1.51,0,0,0,1.18,2.43,1.48,1.48,0,0,0,1.18-.58l.17-.21v0l.05-.05v0l0,0,0,0,0,0,0-.06,0,0,.1-.13h0c.27-.34.54-.69.8-1h0l.1-.13h0l.1-.14h0l.07-.09h0l0,0h0l.07-.09h0l.13-.18a1.5,1.5,0,0,0-1.2-2.4Zm5.16-7.27a1.49,1.49,0,0,0-1.25.67c-.54.81-1.1,1.62-1.66,2.43a1.51,1.51,0,0,0,.38,2.09,1.49,1.49,0,0,0,.85.26,1.51,1.51,0,0,0,1.24-.64h0c.57-.82,1.13-1.65,1.69-2.48a1.5,1.5,0,0,0-.42-2.08,1.47,1.47,0,0,0-.83-.25Zm4.74-7.55a1.49,1.49,0,0,0-1.29.74c-.5.84-1,1.68-1.52,2.52a1.49,1.49,0,0,0,.49,2.06,1.51,1.51,0,0,0,.78.22,1.49,1.49,0,0,0,1.28-.71l.93-1.52h0l.09-.15h0l0-.07h0l0-.06,0,0,0-.07,0,0,0-.05v0l0-.07v0l0,0,0,0,0-.06,0,0,0-.06v0l0-.06v0l0-.07h0l0-.06h0a1.5,1.5,0,0,0-1.29-2.26Zm4.31-7.81a1.51,1.51,0,0,0-1.34.82c-.45.87-.9,1.74-1.37,2.6a1.5,1.5,0,0,0,.61,2,1.39,1.39,0,0,0,.71.18,1.5,1.5,0,0,0,1.32-.78c0-.09.09-.17.13-.25h0l.05-.08h0l0-.07h0l0-.07v0l0-.06v0l0-.06v0l0-.05,0,0,0,0,0,0,0,0,0-.05,0,0,0,0,0,0,0-.06,0,0,0,0,0-.05v0l0,0,0,0,0-.06,0,0,0,0,0,0,0-.06,0,0,0-.05,0,0,0-.06v0l0-.05,0,0,0-.05,0,0,0-.07v0l0-.05v0l0-.07v0l0,0,0,0,0-.06,0,0,0,0,0-.06v0l0-.05h0l0-.1h0l0,0a1.5,1.5,0,0,0-.65-2,1.52,1.52,0,0,0-.68-.17Zm3.86-8a1.49,1.49,0,0,0-1.37.89q-.6,1.35-1.23,2.67a1.51,1.51,0,0,0,.72,2,1.48,1.48,0,0,0,.64.14,1.51,1.51,0,0,0,1.36-.86c.4-.85.79-1.7,1.17-2.56h0l0-.08h0l0-.07h0a1.51,1.51,0,0,0-.76-2,1.49,1.49,0,0,0-.61-.13Zm3.4-8.24a1.49,1.49,0,0,0-1.4,1c-.35.91-.71,1.83-1.08,2.74a1.51,1.51,0,0,0,.84,1.95,1.55,1.55,0,0,0,.56.11,1.51,1.51,0,0,0,1.39-.94l1-2.45h0l.06-.16v0l0-.07v0l0-.05v0a1.5,1.5,0,0,0-.87-1.93,1.39,1.39,0,0,0-.53-.1Zm2.93-8.42a1.5,1.5,0,0,0-1.43,1.05c-.3.93-.6,1.87-.92,2.8a1.51,1.51,0,0,0,.94,1.9,1.61,1.61,0,0,0,.48.08,1.5,1.5,0,0,0,1.42-1c.17-.49.33-1,.5-1.48h0v-.15l0-.07s0,0,0,0c.13-.38.25-.77.38-1.16a1.5,1.5,0,0,0-1-1.88,1.41,1.41,0,0,0-.45-.07Zm2.44-8.57a1.49,1.49,0,0,0-1.45,1.13c-.24.95-.49,1.9-.75,2.84a1.5,1.5,0,0,0,1,1.85,1.9,1.9,0,0,0,.4.05,1.51,1.51,0,0,0,1.45-1.09c.26-1,.52-1.94.77-2.91a1.5,1.5,0,0,0-1.09-1.82,1.18,1.18,0,0,0-.37,0Zm2-8.7a1.51,1.51,0,0,0-1.47,1.21c-.19,1-.39,1.93-.59,2.89a1.49,1.49,0,0,0,1.15,1.78,1.63,1.63,0,0,0,.31,0,1.5,1.5,0,0,0,1.47-1.18c.08-.39.17-.79.25-1.18h0v-.2h0v-.05h0c.08-.37.15-.73.23-1.1h0v-.05h0v-.13h0l0-.18a1.5,1.5,0,0,0-1.18-1.76l-.29,0ZM413,276.3a1.49,1.49,0,0,0-1.48,1.3c-.14,1-.28,1.94-.43,2.91a1.49,1.49,0,0,0,1.25,1.71l.23,0a1.49,1.49,0,0,0,1.48-1.27c.07-.46.15-.92.21-1.38h0v0h0v-.21h0v-.06h0v-.05h0l0-.18h0c0-.13,0-.25.05-.37h0l0-.11v-.17h0v0h0c0-.09,0-.18,0-.28a1.51,1.51,0,0,0-1.28-1.69Zm1-8.86a1.5,1.5,0,0,0-1.5,1.38c-.07,1-.16,1.95-.26,2.93a1.5,1.5,0,0,0,1.34,1.64h.15a1.51,1.51,0,0,0,1.5-1.36v-.49h0v-.06h0v-.05h0v-.12h0v-.06h0c.06-.72.13-1.44.19-2.16a1.51,1.51,0,0,0-1.38-1.62Zm.47-8.91A1.5,1.5,0,0,0,413,260c0,1-.06,2-.1,2.94a1.49,1.49,0,0,0,1.43,1.56h.07a1.5,1.5,0,0,0,1.5-1.43v-.18h0v-.11c0-.74.06-1.48.08-2.23v-.09h0v-.06h0c0-.1,0-.21,0-.31a1.51,1.51,0,0,0-1.46-1.54Zm0-8.92h-.05a1.48,1.48,0,0,0-1.45,1.54q0,1.47.06,2.94a1.5,1.5,0,0,0,1.5,1.49h0a1.5,1.5,0,0,0,1.48-1.52q0-1.5-.06-3a1.52,1.52,0,0,0-1.5-1.46Zm-.52-8.9h-.13a1.5,1.5,0,0,0-1.37,1.62c.09,1,.16,2,.23,2.94a1.5,1.5,0,0,0,1.49,1.4h.11a1.49,1.49,0,0,0,1.39-1.59l0-.47h0v-.24h0v-.08h0v-.42h0v-.08h0v-.05h0v-.05h0v-.09h0v0h0l-.12-1.45a1.49,1.49,0,0,0-1.49-1.37Zm-1-8.85h-.22a1.5,1.5,0,0,0-1.27,1.7c.14,1,.27,1.94.39,2.92a1.49,1.49,0,0,0,1.49,1.31h.18a1.5,1.5,0,0,0,1.31-1.67l0-.12h0v-.13h0v-.06h0l0-.12h0v-.05h0v-.12h0l-.15-1.12h0l0-.12h0v-.05h0V234h0l-.12-.84a1.5,1.5,0,0,0-1.48-1.28Zm-1.51-8.79-.3,0a1.52,1.52,0,0,0-1.18,1.77c.2,1,.38,1.92.56,2.89a1.5,1.5,0,0,0,1.47,1.23l.27,0a1.5,1.5,0,0,0,1.21-1.74c0-.18-.06-.36-.1-.54h0l0-.18h0v-.06h0v-.06h0v-.14l0-.07h0v0h0c-.11-.61-.23-1.22-.35-1.83a1.5,1.5,0,0,0-1.47-1.21Zm-2-8.68a1.69,1.69,0,0,0-.38,0,1.5,1.5,0,0,0-1.07,1.83c.25,1,.48,1.9.71,2.86a1.5,1.5,0,0,0,1.46,1.15,1.34,1.34,0,0,0,.35,0,1.51,1.51,0,0,0,1.11-1.81c0-.16-.08-.32-.11-.48h0l0-.17h0l0-.18h0l-.05-.18h0l0-.18h0c-.15-.57-.29-1.14-.44-1.71a1.49,1.49,0,0,0-1.45-1.11Zm-2.49-8.56a1.47,1.47,0,0,0-.46.07,1.5,1.5,0,0,0-1,1.89c.3.93.59,1.87.88,2.81a1.49,1.49,0,0,0,1.43,1.07,1.35,1.35,0,0,0,.44-.07,1.5,1.5,0,0,0,1-1.87c-.29-1-.59-1.91-.9-2.86a1.48,1.48,0,0,0-1.42-1Zm-3-8.41a1.49,1.49,0,0,0-.54.11,1.5,1.5,0,0,0-.86,1.94c.36.91.7,1.83,1,2.75a1.5,1.5,0,0,0,1.41,1,1.52,1.52,0,0,0,.51-.09,1.5,1.5,0,0,0,.9-1.92c-.35-.95-.7-1.88-1.06-2.82a1.51,1.51,0,0,0-1.4-1Zm-3.44-8.22a1.51,1.51,0,0,0-.62.14,1.49,1.49,0,0,0-.75,2c.41.9.8,1.79,1.19,2.69a1.5,1.5,0,0,0,1.38.91,1.52,1.52,0,0,0,.59-.12,1.5,1.5,0,0,0,.79-2c-.4-.92-.8-1.85-1.22-2.76a1.5,1.5,0,0,0-1.36-.88Zm-3.91-8a1.44,1.44,0,0,0-.69.17,1.5,1.5,0,0,0-.64,2c.46.87.91,1.75,1.34,2.63a1.53,1.53,0,0,0,1.35.83,1.5,1.5,0,0,0,1.34-2.17l-.59-1.17h0l0-.08h0l0-.08h0l0-.08h0l-.08-.15v0l0-.07v0l0-.06,0,0,0-.07v0l0-.05v0l0-.06,0,0,0,0-.07-.15h0l-.24-.47a1.5,1.5,0,0,0-1.33-.8Zm-4.35-7.78a1.5,1.5,0,0,0-1.28,2.27c.5.84,1,1.69,1.48,2.54a1.51,1.51,0,0,0,1.3.76,1.56,1.56,0,0,0,.75-.2,1.5,1.5,0,0,0,.56-2.05h0l0-.06v0l-.08-.15h0l-.09-.16h0c-.42-.73-.85-1.46-1.28-2.18a1.5,1.5,0,0,0-1.29-.73Zm-4.78-7.53a1.54,1.54,0,0,0-.84.26,1.51,1.51,0,0,0-.4,2.08c.55.82,1.09,1.64,1.63,2.46a1.48,1.48,0,0,0,1.26.68,1.42,1.42,0,0,0,.81-.24,1.49,1.49,0,0,0,.44-2.07c-.13-.21-.27-.42-.41-.63h0l-.1-.15h0l-.05-.07v0l0,0v0l0-.06v0l0,0v0l0-.06,0,0,0-.05,0,0,0,0,0,0,0-.06,0,0,0-.05,0,0,0-.06,0,0,0-.05h0l-.05-.07v0l0-.06h0l0-.06v0L389,167h0l-.31-.47a1.53,1.53,0,0,0-1.25-.66Zm-5.19-7.24a1.47,1.47,0,0,0-.91.31,1.5,1.5,0,0,0-.29,2.1c.6.78,1.18,1.57,1.76,2.36A1.51,1.51,0,0,0,384,164a1.47,1.47,0,0,0,.88-.29,1.5,1.5,0,0,0,.33-2.09l-.3-.4v0l0-.06,0,0,0,0-.05-.06h0l0-.07h0l-.89-1.2h0l-.06-.06v0l0,0,0,0,0,0,0-.05h0l-.2-.27a1.49,1.49,0,0,0-1.19-.59Zm-5.6-6.94a1.5,1.5,0,0,0-1.14,2.47c.64.75,1.27,1.5,1.89,2.26a1.51,1.51,0,0,0,1.16.55,1.48,1.48,0,0,0,.95-.34,1.5,1.5,0,0,0,.21-2.11c-.42-.52-.85-1-1.28-1.55h0l-.06-.07,0,0,0,0,0,0v0l-.06-.06h0l-.42-.5a1.53,1.53,0,0,0-1.15-.52Zm-6-6.62a1.5,1.5,0,0,0-1.08,2.54c.67.71,1.35,1.42,2,2.14a1.49,1.49,0,0,0,2.12.09,1.5,1.5,0,0,0,.09-2.12l-.19-.2h0l-.06-.06v0l-.05,0,0,0,0,0,0,0,0,0,0,0h0l-.07-.08h0L372,145.79h0l-.06-.06,0,0,0,0,0,0v0l-.06-.06h0a1.5,1.5,0,0,0-1.09-.46Zm-6.33-6.27a1.49,1.49,0,0,0-1.1.47,1.51,1.51,0,0,0,.07,2.12c.72.67,1.43,1.35,2.13,2a1.48,1.48,0,0,0,1.05.43,1.45,1.45,0,0,0,1.07-.46,1.5,1.5,0,0,0,0-2.12h0l0-.05h0l-.06-.06h0l-.81-.78h0l-.06-.06h0l-.06-.06v0l-.06,0h0l0,0,0,0-.05,0,0,0,0,0-.05-.05,0,0,0,0,0,0-.06-.06h0l0,0h0l-.08-.07h0l-.13-.11h0l-.12-.11v0l-.06-.05,0,0,0,0,0,0,0,0-.05,0h0a1.48,1.48,0,0,0-1-.4Zm-6.67-5.92a1.54,1.54,0,0,0-1.16.54,1.5,1.5,0,0,0,.19,2.11c.75.63,1.5,1.27,2.24,1.92a1.54,1.54,0,0,0,1,.36,1.5,1.5,0,0,0,1-2.62c-.76-.66-1.53-1.32-2.3-2a1.51,1.51,0,0,0-.95-.35Zm-7-5.52a1.46,1.46,0,0,0-1.2.6,1.5,1.5,0,0,0,.3,2.1l2.35,1.78a1.5,1.5,0,0,0,1.84-2.36l-.55-.43h0l-.08-.06h0l0,0,0,0-.05,0,0,0,0,0-.06,0,0,0-.05,0,0,0-.06,0,0,0,0,0h0l-.06,0,0,0-.05,0,0,0-.05,0,0,0-.05,0,0,0,0,0,0,0-.05,0,0,0,0,0-.07-.06h0l0,0h0l-.08-.06h0l-.56-.41a1.48,1.48,0,0,0-.89-.29Zm-7.29-5.13a1.5,1.5,0,0,0-.83,2.75c.82.54,1.63,1.09,2.44,1.65a1.5,1.5,0,1,0,1.7-2.47l-.61-.42h0l-.07,0h0l-.06,0,0,0-.06,0h0l-.05,0,0,0-.05,0,0,0,0,0-.06,0,0,0,0,0h0l-.07,0h0l-.14-.09h0l-.14-.1h0L345,123h0l-.09-.06h0l-.14-.09h0l0,0h0l-.07,0,0,0,0,0-.05,0,0,0,0,0h0l-.06,0,0,0-.06,0h0a1.52,1.52,0,0,0-.83-.25Zm-7.57-4.71a1.5,1.5,0,0,0-.76,2.79l2.53,1.51a1.5,1.5,0,0,0,2.06-.5,1.5,1.5,0,0,0-.5-2.06c-.85-.52-1.71-1-2.57-1.54a1.49,1.49,0,0,0-.76-.2ZM328,113.25a1.5,1.5,0,0,0-.68,2.84c.87.45,1.74.9,2.6,1.36a1.53,1.53,0,0,0,.71.18,1.5,1.5,0,0,0,.71-2.82c-.88-.48-1.77-.94-2.66-1.39a1.52,1.52,0,0,0-.68-.17Zm-8.05-3.83a1.5,1.5,0,0,0-.61,2.88c.9.39,1.79.8,2.68,1.21a1.6,1.6,0,0,0,.63.14,1.5,1.5,0,0,0,.64-2.86l0,0h0l0,0-.07,0h0l-.06,0h0l-2.48-1.12a1.41,1.41,0,0,0-.6-.13Zm-8.26-3.36a1.5,1.5,0,0,0-.52,2.9L313.9,110a1.55,1.55,0,0,0,.56.11,1.5,1.5,0,0,0,.55-2.9l-1.82-.71h0l-.11,0H313l-.78-.3a1.6,1.6,0,0,0-.53-.09Zm-8.43-2.9a1.5,1.5,0,0,0-.44,2.93l2.8.91a1.5,1.5,0,0,0,.95-2.85l-.35-.11h0l0,0h-.1l-1.63-.53h-.15l-.59-.18a1.31,1.31,0,0,0-.44-.07Zm-8.58-2.41a1.5,1.5,0,0,0-.36,3c.95.23,1.9.48,2.84.74a1.9,1.9,0,0,0,.4,0,1.5,1.5,0,0,0,.4-3l-1.9-.5h-.15l-.86-.21a1.22,1.22,0,0,0-.37,0ZM286,98.83a1.5,1.5,0,0,0-.28,3l2.88.58a1.76,1.76,0,0,0,.31,0,1.5,1.5,0,0,0,.32-3c-1-.21-2-.41-3-.6l-.27,0Zm-8.8-1.43a1.5,1.5,0,0,0-.2,3l2.91.41a.93.93,0,0,0,.23,0,1.5,1.5,0,0,0,.23-3l-.35,0h-.22L278,97.5h-.09l-.57-.08Zm-8.87-.93a1.5,1.5,0,0,0-.11,3c1,.07,1.95.16,2.93.25h.14a1.5,1.5,0,0,0,.15-3l-3-.26ZM259.4,96a1.49,1.49,0,0,0-1.5,1.46A1.51,1.51,0,0,0,259.37,99l2.94.08h.06a1.5,1.5,0,0,0,.06-3c-.91,0-1.82-.07-2.75-.09h-.28Z" transform="translate(-15.5 -15.5)" fill="#fff"/><path d="M391.76,391.76A192.17,192.17,0,0,1,89.28,351.32l-2.55,1.55a195.06,195.06,0,0,0,341.37-5.12c-.85-.54-1.7-1.05-2.58-1.53A191.28,191.28,0,0,1,391.76,391.76Z" transform="translate(-15.5 -15.5)" fill="#fff"/><path d="M74.17,333.78a8.44,8.44,0,0,1,3.2-.88,7.79,7.79,0,0,1,3.09.39,8.76,8.76,0,0,1,3.27,2,13.71,13.71,0,0,1,2.69,3.93L88,342.39l8.86-4.34,1.55,3.17L74.59,352.85l-3.15-6.45A17.71,17.71,0,0,1,70,342.59a9.31,9.31,0,0,1-.16-3.18,7.27,7.27,0,0,1,1.24-3.21A7.91,7.91,0,0,1,74.17,333.78ZM75.86,337a5.48,5.48,0,0,0-1.93,1.48,4,4,0,0,0-.84,2,6.06,6.06,0,0,0,.14,2.1,13.54,13.54,0,0,0,1,2.59l1.53,3.13,9.5-4.65L84,341a13,13,0,0,0-1.87-2.94,5,5,0,0,0-2-1.42,5.11,5.11,0,0,0-2.14-.27A6.23,6.23,0,0,0,75.86,337Z" transform="translate(-15.5 -15.5)" fill="#fff"/><path d="M59.1,304.11l2.74,9.05,22.34-6.78,1,3.37-22.34,6.77,2.75,9.05-3,.91L56.1,305Z" transform="translate(-15.5 -15.5)" fill="#fff"/><path d="M77.31,270.34l2.3,17.29-26.24,3.48-2.3-17.29,3.11-.41L56,287.21l7.19-1-1.82-13.8,3.1-.41,1.83,13.8L76,284.55l-1.83-13.8Z" transform="translate(-15.5 -15.5)" fill="#fff"/><path d="M77.58,236.61l-.16,4.57-10.84,8.46-.18,5,10.52.38-.13,3.52-26.45-1,.27-7.41a21.28,21.28,0,0,1,.45-4,8.34,8.34,0,0,1,1.22-2.84,6.69,6.69,0,0,1,2.36-2.17,6.89,6.89,0,0,1,3.52-.68,7.83,7.83,0,0,1,4.74,1.61,8.8,8.8,0,0,1,2.76,4.07Zm-19.3,7.54a4.69,4.69,0,0,0-2,.33,3.44,3.44,0,0,0-1.54,1.27,4.82,4.82,0,0,0-.78,1.78,13,13,0,0,0-.29,2.46l-.16,4.14,10,.36.13-3.55a12.52,12.52,0,0,0-.19-2.92,4.6,4.6,0,0,0-2.69-3.4A6.77,6.77,0,0,0,58.28,244.15Z" transform="translate(-15.5 -15.5)" fill="#fff"/><path d="M60.45,202.75a12,12,0,0,1,4.79-1.46,20.16,20.16,0,0,1,11.42,2.58,12,12,0,0,1,3.66,3.34,10.53,10.53,0,0,1,1.79,4.37,13.3,13.3,0,0,1-.23,5.17,13.58,13.58,0,0,1-2,4.75,10.59,10.59,0,0,1-3.47,3.2,12,12,0,0,1-4.76,1.45,20.28,20.28,0,0,1-11.37-2.54,12.54,12.54,0,0,1-3.75-3.39,10.35,10.35,0,0,1-1.75-4.38,13.56,13.56,0,0,1,.21-5.13,13.29,13.29,0,0,1,2-4.78A10.63,10.63,0,0,1,60.45,202.75Zm9.88,2.55q-5-1.12-8.27.51a8.55,8.55,0,0,0-2.77,12.34q2.24,2.86,7.26,4t8.29-.54a8.53,8.53,0,0,0,2.76-12.27Q75.41,206.44,70.33,205.3Z" transform="translate(-15.5 -15.5)" fill="#fff"/><path d="M84.79,167.74a13.6,13.6,0,0,1,5.36,4.08,11.8,11.8,0,0,1,2.48,5.66,13.4,13.4,0,0,1-.15,4.36,29.09,29.09,0,0,1-1.91,5.58l-2.7,6.11L63.65,182.87l2.66-6.05a26.76,26.76,0,0,1,3-5.42,13.55,13.55,0,0,1,3-2.92,11.92,11.92,0,0,1,5.81-2A13.91,13.91,0,0,1,84.79,167.74Zm-1.53,3.35A11.37,11.37,0,0,0,78,170a7.89,7.89,0,0,0-4.38,1.61,10.83,10.83,0,0,0-2.47,2.54,21.68,21.68,0,0,0-2,3.72l-1.33,3,18.7,8.23,1.33-3a23.39,23.39,0,0,0,1.44-4.21,9.83,9.83,0,0,0,.13-3.74,7.94,7.94,0,0,0-1.85-4.05A11.81,11.81,0,0,0,83.26,171.09Z" transform="translate(-15.5 -15.5)" fill="#fff"/><path d="M94.8,133.22a12,12,0,0,1,5,.45,20.18,20.18,0,0,1,9.6,6.69,12,12,0,0,1,2.13,4.49,10.55,10.55,0,0,1,0,4.71,14.66,14.66,0,0,1-5.82,8.34,10.56,10.56,0,0,1-4.42,1.66,12,12,0,0,1-5-.44,20.38,20.38,0,0,1-9.57-6.65,12.34,12.34,0,0,1-2.19-4.55,10.14,10.14,0,0,1,0-4.71,14.25,14.25,0,0,1,5.81-8.35A10.69,10.69,0,0,1,94.8,133.22Zm8.19,6.09q-4.23-3-7.85-2.65a8.55,8.55,0,0,0-7.22,10.39c.66,2.32,2.4,4.47,5.22,6.43s5.48,2.85,7.89,2.62a8.54,8.54,0,0,0,7.18-10.32C107.58,143.44,105.84,141.29,103,139.31Z" transform="translate(-15.5 -15.5)" fill="#fff"/><path d="M138.13,120.91,135,124l-25.52-8.16L126,132.72l-2.35,2.3-18.5-18.93,3.9-3.81,23.3,7.45-15.12-15.45,2.36-2.3Z" transform="translate(-15.5 -15.5)" fill="#fff"/><path d="M183.94,91.6l-4,2.13-12.74-5.18-4.39,2.31,4.91,9.31-3.11,1.64L152.22,78.4l6.56-3.46a20.69,20.69,0,0,1,3.68-1.59,8.56,8.56,0,0,1,3.06-.36,6.73,6.73,0,0,1,3.06,1,6.83,6.83,0,0,1,2.34,2.71,7.87,7.87,0,0,1,1,4.91A8.7,8.7,0,0,1,169.73,86Zm-16.15-13a5,5,0,0,0-1.3-1.6,3.55,3.55,0,0,0-1.86-.69,4.73,4.73,0,0,0-1.94.21,12.3,12.3,0,0,0-2.28,1l-3.67,1.93,4.66,8.84,3.15-1.66A12.9,12.9,0,0,0,167,85,4.62,4.62,0,0,0,168.35,83,4.77,4.77,0,0,0,168.6,81,7,7,0,0,0,167.79,78.61Z" transform="translate(-15.5 -15.5)" fill="#fff"/><path d="M209.59,82.81,193,88.21,184.82,63l16.59-5.4,1,3-13.23,4.3,2.24,6.9,13.24-4.31,1,3-13.24,4.3,3,9.35,13.24-4.3Z" transform="translate(-15.5 -15.5)" fill="#fff"/><path d="M241.1,75.33c-.61.38-1.15.73-1.64,1a16.5,16.5,0,0,1-1.94,1.07,22.65,22.65,0,0,1-2.24.91,14.73,14.73,0,0,1-2.74.63,15.89,15.89,0,0,1-5.3,0A10.76,10.76,0,0,1,222.82,77a11.57,11.57,0,0,1-3.25-3.87,17.35,17.35,0,0,1-1.81-5.85,16.91,16.91,0,0,1,.08-5.92,11.69,11.69,0,0,1,2-4.69,11.1,11.1,0,0,1,3.66-3.19,14.89,14.89,0,0,1,5.13-1.66,18.51,18.51,0,0,1,4.28-.1,22.67,22.67,0,0,1,4.93,1.13l.6,4.13-.26,0a15.83,15.83,0,0,0-4.68-2,12.57,12.57,0,0,0-4.67-.17A9.58,9.58,0,0,0,225.35,56a7.79,7.79,0,0,0-2.55,2.41,8.94,8.94,0,0,0-1.41,3.6,14.78,14.78,0,0,0,0,4.75,13.77,13.77,0,0,0,1.43,4.65,9.66,9.66,0,0,0,2.4,3,7.74,7.74,0,0,0,3.15,1.51,9.71,9.71,0,0,0,3.57.12,13,13,0,0,0,4.59-1.54,13.81,13.81,0,0,0,3.74-3.18l.25,0Z" transform="translate(-15.5 -15.5)" fill="#fff"/><path d="M273.17,54.09a12.13,12.13,0,0,1,2.3,4.45,20.13,20.13,0,0,1-.48,11.7,12.1,12.1,0,0,1-2.64,4.21,10.44,10.44,0,0,1-4,2.54,14.5,14.5,0,0,1-10.16-.42,10.53,10.53,0,0,1-3.77-2.84,12,12,0,0,1-2.29-4.41,20.15,20.15,0,0,1,.46-11.65,12.22,12.22,0,0,1,2.66-4.29,10.17,10.17,0,0,1,4-2.51,14.44,14.44,0,0,1,10.16.41A10.82,10.82,0,0,1,273.17,54.09Zm-.73,10.19c.14-3.44-.53-6.12-2-8.05a8.54,8.54,0,0,0-12.64-.5q-2.42,2.7-2.62,7.86c-.14,3.47.54,6.15,2,8.06a8.54,8.54,0,0,0,12.57.5Q272.24,69.48,272.44,64.28Z" transform="translate(-15.5 -15.5)" fill="#fff"/><path d="M313.42,58.3,298.16,82l-4.58-1L290.05,53l3.68.83,2.93,24.55,13.26-20.86Z" transform="translate(-15.5 -15.5)" fill="#fff"/><path d="M333.33,94.24l-16.1-6.68,10.14-24.45,16.11,6.68-1.2,2.89-12.86-5.33-2.78,6.7,12.86,5.33-1.2,2.89-12.85-5.33L321.68,86l12.85,5.33Z" transform="translate(-15.5 -15.5)" fill="#fff"/><path d="M362.36,111.44,358.5,109l-1.86-13.62-4.19-2.66-5.63,8.9-3-1.88L358,77.37l6.26,4a20.84,20.84,0,0,1,3.21,2.4,8,8,0,0,1,1.84,2.48,6.59,6.59,0,0,1,.68,3.13,6.79,6.79,0,0,1-1.18,3.38A7.73,7.73,0,0,1,365,96a8.66,8.66,0,0,1-4.9.34ZM365.57,91a4.93,4.93,0,0,0,.74-1.92,3.45,3.45,0,0,0-.33-2,4.7,4.7,0,0,0-1.15-1.58,12.15,12.15,0,0,0-2-1.49l-3.51-2.22L354,90.25l3,1.9a13,13,0,0,0,2.62,1.31,4.73,4.73,0,0,0,2.37.2,4.59,4.59,0,0,0,1.92-.82A6.6,6.6,0,0,0,365.57,91Z" transform="translate(-15.5 -15.5)" fill="#fff"/><path d="M401.17,110.17,384.32,115l-7.74,8.66L374,121.35l7.49-8.37,3.18-17.59,2.9,2.59L385,111.63l13.33-4Z" transform="translate(-15.5 -15.5)" fill="#fff"/><path d="M427.19,157a8.54,8.54,0,0,1-3.07,1.26,8,8,0,0,1-3.12,0,8.88,8.88,0,0,1-3.49-1.6,13.88,13.88,0,0,1-3.13-3.58l-1.92-3-8.28,5.37-1.91-2.95,22.21-14.4,3.91,6a17.76,17.76,0,0,1,1.86,3.6,9.31,9.31,0,0,1,.54,3.14,7.14,7.14,0,0,1-.85,3.34A7.86,7.86,0,0,1,427.19,157Zm-2.07-3a5.64,5.64,0,0,0,1.74-1.69,4,4,0,0,0,.59-2.13,5.91,5.91,0,0,0-.39-2.06,13.35,13.35,0,0,0-1.31-2.45l-1.89-2.92L415,148.48,416.6,151a13.19,13.19,0,0,0,2.2,2.7,4.89,4.89,0,0,0,2.21,1.16,5,5,0,0,0,2.15,0A5.88,5.88,0,0,0,425.12,154Z" transform="translate(-15.5 -15.5)" fill="#fff"/><path d="M425.47,196.82l-1.81-4.19,6.15-12.3-2-4.56L418.18,180l-1.39-3.23,24.3-10.5L444,173a21.72,21.72,0,0,1,1.3,3.8,8.47,8.47,0,0,1,.12,3.08,6.58,6.58,0,0,1-1.2,3,6.87,6.87,0,0,1-2.89,2.13,7.77,7.77,0,0,1-5,.58,8.74,8.74,0,0,1-4.24-2.49Zm14.2-15.1a5,5,0,0,0,1.7-1.16,3.49,3.49,0,0,0,.83-1.81,4.63,4.63,0,0,0-.06-1.95,12.47,12.47,0,0,0-.79-2.35l-1.64-3.8-9.17,4,1.41,3.27a13.42,13.42,0,0,0,1.42,2.56,4.67,4.67,0,0,0,1.85,1.5,4.57,4.57,0,0,0,2,.41A6.63,6.63,0,0,0,439.67,181.72Z" transform="translate(-15.5 -15.5)" fill="#fff"/><path d="M455.46,220.12a12.15,12.15,0,0,1-3.71,3.38,18.68,18.68,0,0,1-5.51,2.12,18.23,18.23,0,0,1-5.91.43,12.1,12.1,0,0,1-4.75-1.46,10.5,10.5,0,0,1-3.48-3.18,13.27,13.27,0,0,1-2-4.77,13.7,13.7,0,0,1-.21-5.15,10.56,10.56,0,0,1,1.77-4.38,12,12,0,0,1,3.67-3.35,18.42,18.42,0,0,1,5.52-2.12,18.15,18.15,0,0,1,5.85-.45,12.35,12.35,0,0,1,4.84,1.47,10.21,10.21,0,0,1,3.45,3.2,13.51,13.51,0,0,1,2,4.73,13.35,13.35,0,0,1,.22,5.19A10.72,10.72,0,0,1,455.46,220.12Zm-10,1.93c3.36-.76,5.77-2.09,7.26-4a8.55,8.55,0,0,0-2.78-12.34c-2.16-1.09-4.91-1.26-8.27-.5s-5.81,2.11-7.26,4a8.53,8.53,0,0,0,2.76,12.27Q440.35,223.19,445.43,222.05Z" transform="translate(-15.5 -15.5)" fill="#fff"/><path d="M441.84,249.64a6.8,6.8,0,0,1-5.49-1.8,8.24,8.24,0,0,1-2.22-5.57,21.79,21.79,0,0,1,0-2.28c.05-1,.12-1.76.22-2.4l3.29-.2v.19c-.14.5-.27,1.11-.41,1.83a9,9,0,0,0-.13,2.2,7.23,7.23,0,0,0,.53,2.57,2.88,2.88,0,0,0,1.15,1.37,4,4,0,0,0,1.77.51,21.29,21.29,0,0,0,2.39,0l15.42-.93-.34-5.59,2.81-.17.54,9.1Z" transform="translate(-15.5 -15.5)" fill="#fff"/><path d="M433.57,280.68,435,263.3l26.38,2.22-1.47,17.38-3.12-.26L458,268.77l-7.23-.61L449.6,282l-3.12-.27,1.17-13.87-9.8-.82-1.17,13.87Z" transform="translate(-15.5 -15.5)" fill="#fff"/><path d="M428.26,312.61c-.11-.7-.22-1.34-.33-1.91a15.69,15.69,0,0,1-.23-2.2,19.93,19.93,0,0,1,0-2.43,15.89,15.89,0,0,1,.47-2.77,16.31,16.31,0,0,1,2.1-4.86,10.78,10.78,0,0,1,3.49-3.33,11.44,11.44,0,0,1,4.82-1.5,17.5,17.5,0,0,1,6.1.6,17.3,17.3,0,0,1,5.43,2.37,11.65,11.65,0,0,1,3.54,3.67,11.13,11.13,0,0,1,1.52,4.61,14.73,14.73,0,0,1-.46,5.37,18.28,18.28,0,0,1-1.57,4,23.14,23.14,0,0,1-2.94,4.11l-4-1.05.06-.26a15.59,15.59,0,0,0,3.68-3.53,12.58,12.58,0,0,0,2-4.24,9.55,9.55,0,0,0,.29-3.67A7.93,7.93,0,0,0,451,302.3a9.22,9.22,0,0,0-2.78-2.7,14.67,14.67,0,0,0-4.38-1.85,13.6,13.6,0,0,0-4.83-.48,9.72,9.72,0,0,0-3.66,1.06,7.83,7.83,0,0,0-2.62,2.33,9.79,9.79,0,0,0-1.49,3.24,12.85,12.85,0,0,0-.36,4.83,13.63,13.63,0,0,0,1.48,4.68l-.06.24Z" transform="translate(-15.5 -15.5)" fill="#fff"/><path d="M435.87,349.43l3.89-8.61-21.27-9.61,1.45-3.21,21.27,9.61L445.1,329l2.86,1.29-9.24,20.44Z" transform="translate(-15.5 -15.5)" fill="#fff"/><path d="M183,224.17H101.67a1.5,1.5,0,1,1,0-3H183a1.5,1.5,0,0,1,0,3Z" transform="translate(-15.5 -15.5)" fill="#fff"/><path d="M158.33,268.5h-60a1.5,1.5,0,1,1,0-3h60a1.5,1.5,0,1,1,0,3Z" transform="translate(-15.5 -15.5)" fill="#fff"/><path d="M414,268.5H392a1.5,1.5,0,0,1,0-3h22a1.5,1.5,0,0,1,0,3Z" transform="translate(-15.5 -15.5)" fill="#fff"/><path d="M411,224.17H356.5a1.5,1.5,0,0,1,0-3H411a1.5,1.5,0,0,1,0,3Z" transform="translate(-15.5 -15.5)" fill="#fff"/><path d="M265.72,180.46c-2.19,4.46-4.62,8.5-9.68,10.55a53.26,53.26,0,0,0-22.28,16.42c-4.94,6.28-6.25,13.49-5.15,21.22,1,7.22,9.08,12.52,15.19,12.66,5.72.13,9.34-1.4,11.46-6.64,2.63-6.51,7.69-9.52,14.36-11.54A105.57,105.57,0,0,0,305,204.82c.72-.57,1.4-1.18,2.07-1.8,3.52-3.32,3.58-3.42,7.62-1,15.15,9.22,30.46,18.2,45.32,27.87a61,61,0,0,1,22.19,25.28,36.38,36.38,0,0,1,3.76,17.05c-1.41.31-2.94.89-3.09-1.48-.82-13.2-7.82-23.13-16.94-31.88-8.11-7.79-17.91-13.19-27.47-18.9q-12.57-7.5-25.2-15c-1.06-.62-2-1.45-3.36-.19-12.51,11.21-27.52,17.77-43.28,22.8a10.1,10.1,0,0,0-6.2,4.76c-3.17,5.45-6.6,10.74-10,16.07a4.29,4.29,0,0,1-1.87,1.83c-.72.24-1.68-.24-2.53-.4.17-.78.31-1.58.53-2.35a5.3,5.3,0,0,1,.6-1l-10.49-4.92c-7.79-3.64-10.72-10.07-10.41-18.3.3-7.69,2.72-14.52,8.37-20a4.31,4.31,0,0,0,1.18-2c-2.64,1.31-5.28,2.6-7.91,3.93q-5.49,2.79-11,5.64c-2.75,1.43-5.44,2.65-8.75,2.7a8,8,0,0,0-5.28,2.89c-2.56,3.17-4.55,6.82-6.86,10.4h9.19l-3.93,2.54c6.56-.32,12-3.9,18.62-6.51v19.22c-1-2.23-2.32-4.28-2.78-6.52s-.1-4.84-.1-6.86c-2.18.81-4.16,1.94-6.25,2.24a54.29,54.29,0,0,0-25.13,10.89c-1.88,1.41-3.89,2.63-6.35,4.28,2.71-6,6.28-10.17,12.16-12.18-7.3-.74-12.08,4.94-19.08,6.79,3.78-4.38,4.93-10.17,10.55-12.45,1.27-.51,2.42-1.31,3.68-1.85,5.07-2.15,9.41-5.08,11.87-10.31a5.9,5.9,0,0,1,2.69-2.17q30.78-15.94,61.61-31.82a25.14,25.14,0,0,0,2.45-1.6Z" transform="translate(-15.5 -15.5)" fill="#fff"/><path d="M253.23,248.64c3.75-6.08,7.25-11.85,10.88-17.53a5.46,5.46,0,0,1,2.5-1.5c9.11-3.77,18.45-7.07,27.29-11.4,5.67-2.77,10.61-7,15.86-10.65.58-.4,1.08-.92,1.86-1.59,2.14,10.58,4.48,20.78,15.07,27-5.33.28-9.92.42-14.49.78-6.71.53-13.23,1.86-19.05,5.51-5.25,3.29-7,8.4-5,13.94.73,2,1.81,3.07,4.21,3,5.3-.2,10.61-.06,15.92-.06h2.66c-.45,3.59-4.85,5.39-3.5,10l1.31-2.18,2.71,2.79c-.55.56-1.41,2.12-2.15,2.07-4.57-.33-7.94,2.55-11.72,4.18a8.39,8.39,0,0,1-7.5.12c-3.78-1.74-7.73-3.12-11.53-5.27h8.56c2.86,0,5.7.27,8.21-2.31Z" transform="translate(-15.5 -15.5)" fill="#fff"/><path d="M260.43,267.63a94.07,94.07,0,0,0-36.2-1.28,178.62,178.62,0,0,0-35.18,9.41,107.84,107.84,0,0,0-31.28,17.87c-9.21,7.66-17.35,16.34-23.42,26.91l-1.21-.85c1-2.48,1.89-5,3-7.43,4-8.77,10.58-15.7,16.67-23,4.38-5.24,8.13-11,12.27-16.44a7.42,7.42,0,0,1,3.25-2.56,103.27,103.27,0,0,0,34.46-18.21A5.52,5.52,0,0,1,206,251q10.44-.15,20.85,0a5.71,5.71,0,0,1,3.22,1.06,74.82,74.82,0,0,0,27.58,13,23,23,0,0,1,3.24,1.35Z" transform="translate(-15.5 -15.5)" fill="#fff"/><path d="M225.63,248.74c-6.84,0-13.69,0-20.53,0a6,6,0,0,0-3.45,1.15,103.49,103.49,0,0,1-34.2,18,5.56,5.56,0,0,0-3,2c-4.76,8.56-11.3,15.7-17.72,23-7.23,8.17-13,17.18-15.55,28-.16.68-.87,1.22-1.32,1.83l-.81-.35c.11-.82.17-1.66.36-2.47,2.64-11.37,8.91-20.72,16.56-29.24,6.24-6.94,12.36-14,17-22.15a5,5,0,0,1,2.67-2,101,101,0,0,0,35.43-18.68,5,5,0,0,1,3-1q9.33-.13,18.65,0a12.59,12.59,0,0,1,3.3.94Z" transform="translate(-15.5 -15.5)" fill="#fff"/><path d="M380.31,267.65c-1.15-.93-2.24-1.37-2.51-2.1a26.05,26.05,0,0,0-12-13.81c-5.3-3-10.93-5.5-16.42-8.2a6.82,6.82,0,0,1-2.32-1.54c2.44.35,4.88.83,7.33,1,3.55.3,7.12.33,10.66.63a5.18,5.18,0,0,1,3.18,1.19c5.75,6,10.23,12.84,12.15,21.11A11,11,0,0,1,380.31,267.65Z" transform="translate(-15.5 -15.5)" fill="#fff"/><path d="M316.88,250.71l2.44,2.84c-.25,2.37-1.37,2.88-6.19,2.09.32-1.72.65-3.43,1-5.57l1.7,2.71Z" transform="translate(-15.5 -15.5)" fill="#fff"/><path d="M208.15,215.16c-1.53,1.47-.3,5.35-4.67,4.85C205,218,205.23,215.53,208.15,215.16Z" transform="translate(-15.5 -15.5)" fill="#fff"/></svg>